G04 #@! TF.GenerationSoftware,KiCad,Pcbnew,(5.1.0-0)*
G04 #@! TF.CreationDate,2019-04-08T09:35:23+05:30*
G04 #@! TF.ProjectId,CAN_board,43414e5f-626f-4617-9264-2e6b69636164,rev?*
G04 #@! TF.SameCoordinates,Original*
G04 #@! TF.FileFunction,Copper,L1,Top*
G04 #@! TF.FilePolarity,Positive*
%FSLAX46Y46*%
G04 Gerber Fmt 4.6, Leading zero omitted, Abs format (unit mm)*
G04 Created by KiCad (PCBNEW (5.1.0-0)) date 2019-04-08 09:35:23*
%MOMM*%
%LPD*%
G04 APERTURE LIST*
%ADD10R,1.700000X1.700000*%
%ADD11O,1.700000X1.700000*%
%ADD12C,0.500000*%
%ADD13C,1.000000*%
G04 APERTURE END LIST*
D10*
X114300000Y-43180000D03*
D11*
X114300000Y-40640000D03*
X116840000Y-43180000D03*
X116840000Y-40640000D03*
X119380000Y-43180000D03*
X119380000Y-40640000D03*
X121920000Y-43180000D03*
X121920000Y-40640000D03*
X124460000Y-43180000D03*
X124460000Y-40640000D03*
X127000000Y-43180000D03*
X127000000Y-40640000D03*
X129540000Y-43180000D03*
X129540000Y-40640000D03*
X132080000Y-43180000D03*
X132080000Y-40640000D03*
X134620000Y-43180000D03*
X134620000Y-40640000D03*
X137160000Y-43180000D03*
X137160000Y-40640000D03*
X139700000Y-43180000D03*
X139700000Y-40640000D03*
X142240000Y-43180000D03*
X142240000Y-40640000D03*
X144780000Y-43180000D03*
X144780000Y-40640000D03*
X147320000Y-43180000D03*
X147320000Y-40640000D03*
X149860000Y-43180000D03*
X149860000Y-40640000D03*
X152400000Y-43180000D03*
X152400000Y-40640000D03*
X154940000Y-43180000D03*
X154940000Y-40640000D03*
X157480000Y-43180000D03*
X157480000Y-40640000D03*
X160020000Y-43180000D03*
X160020000Y-40640000D03*
X162560000Y-43180000D03*
X162560000Y-40640000D03*
X131064000Y-49276000D03*
X131064000Y-51816000D03*
X131064000Y-54356000D03*
X131064000Y-56896000D03*
X131064000Y-59436000D03*
X131064000Y-61976000D03*
X131064000Y-64516000D03*
D10*
X131064000Y-67056000D03*
X159512000Y-60452000D03*
D11*
X159512000Y-57912000D03*
X115824000Y-36068000D03*
X113284000Y-36068000D03*
X110744000Y-36068000D03*
D10*
X108204000Y-36068000D03*
X123444000Y-70612000D03*
D11*
X123444000Y-68072000D03*
X123444000Y-65532000D03*
X123444000Y-62992000D03*
X123444000Y-60452000D03*
X123444000Y-57912000D03*
X123444000Y-55372000D03*
X123444000Y-52832000D03*
X123444000Y-50292000D03*
X123444000Y-47752000D03*
D10*
X124460000Y-36068000D03*
D11*
X127000000Y-36068000D03*
X129540000Y-36068000D03*
X132080000Y-36068000D03*
X164592000Y-36068000D03*
D10*
X162052000Y-36068000D03*
D12*
X144780000Y-61976000D02*
X131064000Y-61976000D01*
X152654000Y-54102000D02*
X144780000Y-61976000D01*
X163830000Y-54102000D02*
X152654000Y-54102000D01*
X166624000Y-51308000D02*
X163830000Y-54102000D01*
X166624000Y-39370000D02*
X166624000Y-51308000D01*
X142240000Y-40640000D02*
X144211989Y-38668011D01*
X165922011Y-38668011D02*
X166624000Y-39370000D01*
X144211989Y-38668011D02*
X165922011Y-38668011D01*
X128254010Y-54625990D02*
X131064000Y-51816000D01*
X128254010Y-67296012D02*
X128254010Y-54625990D01*
X131823998Y-70866000D02*
X128254010Y-67296012D01*
X139700000Y-70866000D02*
X131823998Y-70866000D01*
X155448000Y-55118000D02*
X139700000Y-70866000D01*
X166370000Y-55118000D02*
X155448000Y-55118000D01*
X167862970Y-53625030D02*
X166370000Y-55118000D01*
X142843997Y-37668001D02*
X166547999Y-37668001D01*
X139871998Y-40640000D02*
X142843997Y-37668001D01*
X167862970Y-38982972D02*
X167862970Y-39846970D01*
X166547999Y-37668001D02*
X167862970Y-38982972D01*
X167862970Y-39846970D02*
X167862970Y-53625030D01*
X137160000Y-59436000D02*
X131064000Y-59436000D01*
X139700000Y-56896000D02*
X137160000Y-59436000D01*
X139700000Y-43180000D02*
X139700000Y-56896000D01*
X135382000Y-56896000D02*
X131064000Y-56896000D01*
X137160000Y-55118000D02*
X135382000Y-56896000D01*
X137160000Y-43180000D02*
X137160000Y-55118000D01*
X129540000Y-36576000D02*
X129540000Y-40132000D01*
X129540000Y-40640000D02*
X129540000Y-36576000D01*
D13*
X114300000Y-40640000D02*
X114300000Y-39437919D01*
X114300000Y-39437919D02*
X115129919Y-38608000D01*
X115129919Y-38608000D02*
X117348000Y-38608000D01*
X119888000Y-36068000D02*
X124460000Y-36068000D01*
X117348000Y-38608000D02*
X119888000Y-36068000D01*
D12*
X169862990Y-58737010D02*
X168148000Y-60452000D01*
X169862990Y-34988990D02*
X169862990Y-58737010D01*
X168973010Y-34099010D02*
X169862990Y-34988990D01*
X162052000Y-35814000D02*
X162052000Y-34464000D01*
X162052000Y-34464000D02*
X162416990Y-34099010D01*
X168148000Y-60452000D02*
X159512000Y-60452000D01*
X162416990Y-34099010D02*
X168973010Y-34099010D01*
X166878000Y-57912000D02*
X159512000Y-57912000D01*
X168862980Y-36274980D02*
X168862980Y-55927020D01*
X168402000Y-35814000D02*
X168862980Y-36274980D01*
X168862980Y-55927020D02*
X166878000Y-57912000D01*
X164592000Y-35814000D02*
X168402000Y-35814000D01*
X125645785Y-45780011D02*
X126253990Y-46388216D01*
X119440011Y-45780011D02*
X125645785Y-45780011D01*
X116840000Y-43180000D02*
X119440011Y-45780011D01*
X126253990Y-46388216D02*
X126253990Y-62468010D01*
X125730000Y-62992000D02*
X123444000Y-62992000D01*
X126253990Y-62468010D02*
X125730000Y-62992000D01*
X127254000Y-45974000D02*
X127254000Y-64008000D01*
X127254000Y-64008000D02*
X125730000Y-65532000D01*
X126060001Y-44780001D02*
X127254000Y-45974000D01*
X125730000Y-65532000D02*
X123444000Y-65532000D01*
X120980001Y-44780001D02*
X126060001Y-44780001D01*
X119380000Y-43180000D02*
X120980001Y-44780001D01*
X115821998Y-47752000D02*
X122241919Y-47752000D01*
X122241919Y-47752000D02*
X123444000Y-47752000D01*
X112699999Y-44630001D02*
X115821998Y-47752000D01*
X112699999Y-38938001D02*
X112699999Y-44630001D01*
X115824000Y-35814000D02*
X112699999Y-38938001D01*
X122241919Y-50292000D02*
X123444000Y-50292000D01*
X114808000Y-50292000D02*
X122241919Y-50292000D01*
X111699989Y-47183989D02*
X114808000Y-50292000D01*
X111699989Y-37398011D02*
X111699989Y-47183989D01*
X113284000Y-35814000D02*
X111699989Y-37398011D01*
X122241919Y-52832000D02*
X123444000Y-52832000D01*
X110699979Y-51009979D02*
X112522000Y-52832000D01*
X112522000Y-52832000D02*
X122241919Y-52832000D01*
X110699979Y-35858021D02*
X110699979Y-51009979D01*
X110744000Y-35814000D02*
X110699979Y-35858021D01*
X122241919Y-55372000D02*
X123444000Y-55372000D01*
X110236000Y-55372000D02*
X122241919Y-55372000D01*
X108204000Y-53340000D02*
X110236000Y-55372000D01*
X108204000Y-35814000D02*
X108204000Y-53340000D01*
M02*
