G04 #@! TF.GenerationSoftware,KiCad,Pcbnew,(5.1.0-0)*
G04 #@! TF.CreationDate,2019-04-08T09:35:23+05:30*
G04 #@! TF.ProjectId,CAN_board,43414e5f-626f-4617-9264-2e6b69636164,rev?*
G04 #@! TF.SameCoordinates,Original*
G04 #@! TF.FileFunction,Legend,Top*
G04 #@! TF.FilePolarity,Positive*
%FSLAX46Y46*%
G04 Gerber Fmt 4.6, Leading zero omitted, Abs format (unit mm)*
G04 Created by KiCad (PCBNEW (5.1.0-0)) date 2019-04-08 09:35:23*
%MOMM*%
%LPD*%
G04 APERTURE LIST*
%ADD10C,0.100000*%
%ADD11C,0.150000*%
%ADD12C,0.200000*%
%ADD13C,0.120000*%
G04 APERTURE END LIST*
D10*
X107846857Y-34373333D02*
X108084952Y-34373333D01*
X107799238Y-34516190D02*
X107965904Y-34016190D01*
X108132571Y-34516190D01*
X108394476Y-34016190D02*
X108442095Y-34016190D01*
X108489714Y-34040000D01*
X108513523Y-34063809D01*
X108537333Y-34111428D01*
X108561142Y-34206666D01*
X108561142Y-34325714D01*
X108537333Y-34420952D01*
X108513523Y-34468571D01*
X108489714Y-34492380D01*
X108442095Y-34516190D01*
X108394476Y-34516190D01*
X108346857Y-34492380D01*
X108323047Y-34468571D01*
X108299238Y-34420952D01*
X108275428Y-34325714D01*
X108275428Y-34206666D01*
X108299238Y-34111428D01*
X108323047Y-34063809D01*
X108346857Y-34040000D01*
X108394476Y-34016190D01*
X110386857Y-34373333D02*
X110624952Y-34373333D01*
X110339238Y-34516190D02*
X110505904Y-34016190D01*
X110672571Y-34516190D01*
X111101142Y-34516190D02*
X110815428Y-34516190D01*
X110958285Y-34516190D02*
X110958285Y-34016190D01*
X110910666Y-34087619D01*
X110863047Y-34135238D01*
X110815428Y-34159047D01*
X112926857Y-34373333D02*
X113164952Y-34373333D01*
X112879238Y-34516190D02*
X113045904Y-34016190D01*
X113212571Y-34516190D01*
X113355428Y-34063809D02*
X113379238Y-34040000D01*
X113426857Y-34016190D01*
X113545904Y-34016190D01*
X113593523Y-34040000D01*
X113617333Y-34063809D01*
X113641142Y-34111428D01*
X113641142Y-34159047D01*
X113617333Y-34230476D01*
X113331619Y-34516190D01*
X113641142Y-34516190D01*
X115466857Y-34373333D02*
X115704952Y-34373333D01*
X115419238Y-34516190D02*
X115585904Y-34016190D01*
X115752571Y-34516190D01*
X115871619Y-34016190D02*
X116181142Y-34016190D01*
X116014476Y-34206666D01*
X116085904Y-34206666D01*
X116133523Y-34230476D01*
X116157333Y-34254285D01*
X116181142Y-34301904D01*
X116181142Y-34420952D01*
X116157333Y-34468571D01*
X116133523Y-34492380D01*
X116085904Y-34516190D01*
X115943047Y-34516190D01*
X115895428Y-34492380D01*
X115871619Y-34468571D01*
X124364761Y-34016190D02*
X124126666Y-34016190D01*
X124102857Y-34254285D01*
X124126666Y-34230476D01*
X124174285Y-34206666D01*
X124293333Y-34206666D01*
X124340952Y-34230476D01*
X124364761Y-34254285D01*
X124388571Y-34301904D01*
X124388571Y-34420952D01*
X124364761Y-34468571D01*
X124340952Y-34492380D01*
X124293333Y-34516190D01*
X124174285Y-34516190D01*
X124126666Y-34492380D01*
X124102857Y-34468571D01*
X124531428Y-34016190D02*
X124698095Y-34516190D01*
X124864761Y-34016190D01*
X125678571Y-34016190D02*
X125988095Y-34016190D01*
X125821428Y-34206666D01*
X125892857Y-34206666D01*
X125940476Y-34230476D01*
X125964285Y-34254285D01*
X125988095Y-34301904D01*
X125988095Y-34420952D01*
X125964285Y-34468571D01*
X125940476Y-34492380D01*
X125892857Y-34516190D01*
X125750000Y-34516190D01*
X125702380Y-34492380D01*
X125678571Y-34468571D01*
X126130952Y-34016190D02*
X126297619Y-34516190D01*
X126464285Y-34016190D01*
X126583333Y-34016190D02*
X126892857Y-34016190D01*
X126726190Y-34206666D01*
X126797619Y-34206666D01*
X126845238Y-34230476D01*
X126869047Y-34254285D01*
X126892857Y-34301904D01*
X126892857Y-34420952D01*
X126869047Y-34468571D01*
X126845238Y-34492380D01*
X126797619Y-34516190D01*
X126654761Y-34516190D01*
X126607142Y-34492380D01*
X126583333Y-34468571D01*
X126988095Y-34563809D02*
X127369047Y-34563809D01*
X127488095Y-34516190D02*
X127488095Y-34016190D01*
X127773809Y-34516190D01*
X127773809Y-34016190D01*
X128297619Y-34468571D02*
X128273809Y-34492380D01*
X128202380Y-34516190D01*
X128154761Y-34516190D01*
X128083333Y-34492380D01*
X128035714Y-34444761D01*
X128011904Y-34397142D01*
X127988095Y-34301904D01*
X127988095Y-34230476D01*
X128011904Y-34135238D01*
X128035714Y-34087619D01*
X128083333Y-34040000D01*
X128154761Y-34016190D01*
X128202380Y-34016190D01*
X128273809Y-34040000D01*
X128297619Y-34063809D01*
X129159047Y-34040000D02*
X129111428Y-34016190D01*
X129040000Y-34016190D01*
X128968571Y-34040000D01*
X128920952Y-34087619D01*
X128897142Y-34135238D01*
X128873333Y-34230476D01*
X128873333Y-34301904D01*
X128897142Y-34397142D01*
X128920952Y-34444761D01*
X128968571Y-34492380D01*
X129040000Y-34516190D01*
X129087619Y-34516190D01*
X129159047Y-34492380D01*
X129182857Y-34468571D01*
X129182857Y-34301904D01*
X129087619Y-34301904D01*
X129397142Y-34516190D02*
X129397142Y-34016190D01*
X129682857Y-34516190D01*
X129682857Y-34016190D01*
X129920952Y-34516190D02*
X129920952Y-34016190D01*
X130040000Y-34016190D01*
X130111428Y-34040000D01*
X130159047Y-34087619D01*
X130182857Y-34135238D01*
X130206666Y-34230476D01*
X130206666Y-34301904D01*
X130182857Y-34397142D01*
X130159047Y-34444761D01*
X130111428Y-34492380D01*
X130040000Y-34516190D01*
X129920952Y-34516190D01*
X131699047Y-34040000D02*
X131651428Y-34016190D01*
X131580000Y-34016190D01*
X131508571Y-34040000D01*
X131460952Y-34087619D01*
X131437142Y-34135238D01*
X131413333Y-34230476D01*
X131413333Y-34301904D01*
X131437142Y-34397142D01*
X131460952Y-34444761D01*
X131508571Y-34492380D01*
X131580000Y-34516190D01*
X131627619Y-34516190D01*
X131699047Y-34492380D01*
X131722857Y-34468571D01*
X131722857Y-34301904D01*
X131627619Y-34301904D01*
X131937142Y-34516190D02*
X131937142Y-34016190D01*
X132222857Y-34516190D01*
X132222857Y-34016190D01*
X132460952Y-34516190D02*
X132460952Y-34016190D01*
X132580000Y-34016190D01*
X132651428Y-34040000D01*
X132699047Y-34087619D01*
X132722857Y-34135238D01*
X132746666Y-34230476D01*
X132746666Y-34301904D01*
X132722857Y-34397142D01*
X132699047Y-34444761D01*
X132651428Y-34492380D01*
X132580000Y-34516190D01*
X132460952Y-34516190D01*
X164068190Y-34468571D02*
X164044380Y-34492380D01*
X163972952Y-34516190D01*
X163925333Y-34516190D01*
X163853904Y-34492380D01*
X163806285Y-34444761D01*
X163782476Y-34397142D01*
X163758666Y-34301904D01*
X163758666Y-34230476D01*
X163782476Y-34135238D01*
X163806285Y-34087619D01*
X163853904Y-34040000D01*
X163925333Y-34016190D01*
X163972952Y-34016190D01*
X164044380Y-34040000D01*
X164068190Y-34063809D01*
X164258666Y-34373333D02*
X164496761Y-34373333D01*
X164211047Y-34516190D02*
X164377714Y-34016190D01*
X164544380Y-34516190D01*
X164711047Y-34516190D02*
X164711047Y-34016190D01*
X164996761Y-34516190D01*
X164996761Y-34016190D01*
X165472952Y-34516190D02*
X165234857Y-34516190D01*
X165234857Y-34016190D01*
X161468666Y-34468571D02*
X161444857Y-34492380D01*
X161373428Y-34516190D01*
X161325809Y-34516190D01*
X161254380Y-34492380D01*
X161206761Y-34444761D01*
X161182952Y-34397142D01*
X161159142Y-34301904D01*
X161159142Y-34230476D01*
X161182952Y-34135238D01*
X161206761Y-34087619D01*
X161254380Y-34040000D01*
X161325809Y-34016190D01*
X161373428Y-34016190D01*
X161444857Y-34040000D01*
X161468666Y-34063809D01*
X161659142Y-34373333D02*
X161897238Y-34373333D01*
X161611523Y-34516190D02*
X161778190Y-34016190D01*
X161944857Y-34516190D01*
X162111523Y-34516190D02*
X162111523Y-34016190D01*
X162397238Y-34516190D01*
X162397238Y-34016190D01*
X162635333Y-34516190D02*
X162635333Y-34016190D01*
X162635333Y-34254285D02*
X162921047Y-34254285D01*
X162921047Y-34516190D02*
X162921047Y-34016190D01*
D11*
X117260666Y-61539047D02*
X117260666Y-61062857D01*
X117546380Y-61634285D02*
X116546380Y-61300952D01*
X117546380Y-60967619D01*
X117546380Y-60634285D02*
X116546380Y-60634285D01*
X116546380Y-60396190D01*
X116594000Y-60253333D01*
X116689238Y-60158095D01*
X116784476Y-60110476D01*
X116974952Y-60062857D01*
X117117809Y-60062857D01*
X117308285Y-60110476D01*
X117403523Y-60158095D01*
X117498761Y-60253333D01*
X117546380Y-60396190D01*
X117546380Y-60634285D01*
X117498761Y-59681904D02*
X117546380Y-59539047D01*
X117546380Y-59300952D01*
X117498761Y-59205714D01*
X117451142Y-59158095D01*
X117355904Y-59110476D01*
X117260666Y-59110476D01*
X117165428Y-59158095D01*
X117117809Y-59205714D01*
X117070190Y-59300952D01*
X117022571Y-59491428D01*
X116974952Y-59586666D01*
X116927333Y-59634285D01*
X116832095Y-59681904D01*
X116736857Y-59681904D01*
X116641619Y-59634285D01*
X116594000Y-59586666D01*
X116546380Y-59491428D01*
X116546380Y-59253333D01*
X116594000Y-59110476D01*
X117546380Y-58158095D02*
X117546380Y-58729523D01*
X117546380Y-58443809D02*
X116546380Y-58443809D01*
X116689238Y-58539047D01*
X116784476Y-58634285D01*
X116832095Y-58729523D01*
X117546380Y-57205714D02*
X117546380Y-57777142D01*
X117546380Y-57491428D02*
X116546380Y-57491428D01*
X116689238Y-57586666D01*
X116784476Y-57681904D01*
X116832095Y-57777142D01*
X117546380Y-56253333D02*
X117546380Y-56824761D01*
X117546380Y-56539047D02*
X116546380Y-56539047D01*
X116689238Y-56634285D01*
X116784476Y-56729523D01*
X116832095Y-56824761D01*
X116546380Y-55348571D02*
X116546380Y-55824761D01*
X117022571Y-55872380D01*
X116974952Y-55824761D01*
X116927333Y-55729523D01*
X116927333Y-55491428D01*
X116974952Y-55396190D01*
X117022571Y-55348571D01*
X117117809Y-55300952D01*
X117355904Y-55300952D01*
X117451142Y-55348571D01*
X117498761Y-55396190D01*
X117546380Y-55491428D01*
X117546380Y-55729523D01*
X117498761Y-55824761D01*
X117451142Y-55872380D01*
X141033904Y-58110380D02*
X141033904Y-57110380D01*
X141367238Y-57824666D01*
X141700571Y-57110380D01*
X141700571Y-58110380D01*
X142748190Y-58015142D02*
X142700571Y-58062761D01*
X142557714Y-58110380D01*
X142462476Y-58110380D01*
X142319619Y-58062761D01*
X142224380Y-57967523D01*
X142176761Y-57872285D01*
X142129142Y-57681809D01*
X142129142Y-57538952D01*
X142176761Y-57348476D01*
X142224380Y-57253238D01*
X142319619Y-57158000D01*
X142462476Y-57110380D01*
X142557714Y-57110380D01*
X142700571Y-57158000D01*
X142748190Y-57205619D01*
X143176761Y-58110380D02*
X143176761Y-57110380D01*
X143557714Y-57110380D01*
X143652952Y-57158000D01*
X143700571Y-57205619D01*
X143748190Y-57300857D01*
X143748190Y-57443714D01*
X143700571Y-57538952D01*
X143652952Y-57586571D01*
X143557714Y-57634190D01*
X143176761Y-57634190D01*
X144129142Y-57205619D02*
X144176761Y-57158000D01*
X144272000Y-57110380D01*
X144510095Y-57110380D01*
X144605333Y-57158000D01*
X144652952Y-57205619D01*
X144700571Y-57300857D01*
X144700571Y-57396095D01*
X144652952Y-57538952D01*
X144081523Y-58110380D01*
X144700571Y-58110380D01*
X145605333Y-57110380D02*
X145129142Y-57110380D01*
X145081523Y-57586571D01*
X145129142Y-57538952D01*
X145224380Y-57491333D01*
X145462476Y-57491333D01*
X145557714Y-57538952D01*
X145605333Y-57586571D01*
X145652952Y-57681809D01*
X145652952Y-57919904D01*
X145605333Y-58015142D01*
X145557714Y-58062761D01*
X145462476Y-58110380D01*
X145224380Y-58110380D01*
X145129142Y-58062761D01*
X145081523Y-58015142D01*
X146605333Y-58110380D02*
X146033904Y-58110380D01*
X146319619Y-58110380D02*
X146319619Y-57110380D01*
X146224380Y-57253238D01*
X146129142Y-57348476D01*
X146033904Y-57396095D01*
X147510095Y-57110380D02*
X147033904Y-57110380D01*
X146986285Y-57586571D01*
X147033904Y-57538952D01*
X147129142Y-57491333D01*
X147367238Y-57491333D01*
X147462476Y-57538952D01*
X147510095Y-57586571D01*
X147557714Y-57681809D01*
X147557714Y-57919904D01*
X147510095Y-58015142D01*
X147462476Y-58062761D01*
X147367238Y-58110380D01*
X147129142Y-58110380D01*
X147033904Y-58062761D01*
X146986285Y-58015142D01*
D12*
X139272190Y-35321142D02*
X139224571Y-35368761D01*
X139081714Y-35416380D01*
X138986476Y-35416380D01*
X138843619Y-35368761D01*
X138748380Y-35273523D01*
X138700761Y-35178285D01*
X138653142Y-34987809D01*
X138653142Y-34844952D01*
X138700761Y-34654476D01*
X138748380Y-34559238D01*
X138843619Y-34464000D01*
X138986476Y-34416380D01*
X139081714Y-34416380D01*
X139224571Y-34464000D01*
X139272190Y-34511619D01*
X139653142Y-35130666D02*
X140129333Y-35130666D01*
X139557904Y-35416380D02*
X139891238Y-34416380D01*
X140224571Y-35416380D01*
X140557904Y-35416380D02*
X140557904Y-34416380D01*
X141129333Y-35416380D01*
X141129333Y-34416380D01*
X141605523Y-35035428D02*
X142367428Y-35035428D01*
X142796000Y-35130666D02*
X143272190Y-35130666D01*
X142700761Y-35416380D02*
X143034095Y-34416380D01*
X143367428Y-35416380D01*
X143700761Y-35416380D02*
X143700761Y-34416380D01*
X143938857Y-34416380D01*
X144081714Y-34464000D01*
X144176952Y-34559238D01*
X144224571Y-34654476D01*
X144272190Y-34844952D01*
X144272190Y-34987809D01*
X144224571Y-35178285D01*
X144176952Y-35273523D01*
X144081714Y-35368761D01*
X143938857Y-35416380D01*
X143700761Y-35416380D01*
X145272190Y-35321142D02*
X145224571Y-35368761D01*
X145081714Y-35416380D01*
X144986476Y-35416380D01*
X144843619Y-35368761D01*
X144748380Y-35273523D01*
X144700761Y-35178285D01*
X144653142Y-34987809D01*
X144653142Y-34844952D01*
X144700761Y-34654476D01*
X144748380Y-34559238D01*
X144843619Y-34464000D01*
X144986476Y-34416380D01*
X145081714Y-34416380D01*
X145224571Y-34464000D01*
X145272190Y-34511619D01*
X146796000Y-34892571D02*
X146938857Y-34940190D01*
X146986476Y-34987809D01*
X147034095Y-35083047D01*
X147034095Y-35225904D01*
X146986476Y-35321142D01*
X146938857Y-35368761D01*
X146843619Y-35416380D01*
X146462666Y-35416380D01*
X146462666Y-34416380D01*
X146796000Y-34416380D01*
X146891238Y-34464000D01*
X146938857Y-34511619D01*
X146986476Y-34606857D01*
X146986476Y-34702095D01*
X146938857Y-34797333D01*
X146891238Y-34844952D01*
X146796000Y-34892571D01*
X146462666Y-34892571D01*
X147605523Y-35416380D02*
X147510285Y-35368761D01*
X147462666Y-35321142D01*
X147415047Y-35225904D01*
X147415047Y-34940190D01*
X147462666Y-34844952D01*
X147510285Y-34797333D01*
X147605523Y-34749714D01*
X147748380Y-34749714D01*
X147843619Y-34797333D01*
X147891238Y-34844952D01*
X147938857Y-34940190D01*
X147938857Y-35225904D01*
X147891238Y-35321142D01*
X147843619Y-35368761D01*
X147748380Y-35416380D01*
X147605523Y-35416380D01*
X148796000Y-35416380D02*
X148796000Y-34892571D01*
X148748380Y-34797333D01*
X148653142Y-34749714D01*
X148462666Y-34749714D01*
X148367428Y-34797333D01*
X148796000Y-35368761D02*
X148700761Y-35416380D01*
X148462666Y-35416380D01*
X148367428Y-35368761D01*
X148319809Y-35273523D01*
X148319809Y-35178285D01*
X148367428Y-35083047D01*
X148462666Y-35035428D01*
X148700761Y-35035428D01*
X148796000Y-34987809D01*
X149272190Y-35416380D02*
X149272190Y-34749714D01*
X149272190Y-34940190D02*
X149319809Y-34844952D01*
X149367428Y-34797333D01*
X149462666Y-34749714D01*
X149557904Y-34749714D01*
X150319809Y-35416380D02*
X150319809Y-34416380D01*
X150319809Y-35368761D02*
X150224571Y-35416380D01*
X150034095Y-35416380D01*
X149938857Y-35368761D01*
X149891238Y-35321142D01*
X149843619Y-35225904D01*
X149843619Y-34940190D01*
X149891238Y-34844952D01*
X149938857Y-34797333D01*
X150034095Y-34749714D01*
X150224571Y-34749714D01*
X150319809Y-34797333D01*
X151415047Y-34416380D02*
X151748380Y-35416380D01*
X152081714Y-34416380D01*
X152938857Y-35416380D02*
X152367428Y-35416380D01*
X152653142Y-35416380D02*
X152653142Y-34416380D01*
X152557904Y-34559238D01*
X152462666Y-34654476D01*
X152367428Y-34702095D01*
X142915047Y-37116380D02*
X142915047Y-36116380D01*
X143391238Y-37116380D02*
X143391238Y-36116380D01*
X143724571Y-36116380D02*
X144296000Y-36116380D01*
X144010285Y-37116380D02*
X144010285Y-36116380D01*
X145391238Y-37116380D02*
X145391238Y-36116380D01*
X145629333Y-36116380D01*
X145772190Y-36164000D01*
X145867428Y-36259238D01*
X145915047Y-36354476D01*
X145962666Y-36544952D01*
X145962666Y-36687809D01*
X145915047Y-36878285D01*
X145867428Y-36973523D01*
X145772190Y-37068761D01*
X145629333Y-37116380D01*
X145391238Y-37116380D01*
X146772190Y-37068761D02*
X146676952Y-37116380D01*
X146486476Y-37116380D01*
X146391238Y-37068761D01*
X146343619Y-36973523D01*
X146343619Y-36592571D01*
X146391238Y-36497333D01*
X146486476Y-36449714D01*
X146676952Y-36449714D01*
X146772190Y-36497333D01*
X146819809Y-36592571D01*
X146819809Y-36687809D01*
X146343619Y-36783047D01*
X147391238Y-37116380D02*
X147296000Y-37068761D01*
X147248380Y-36973523D01*
X147248380Y-36116380D01*
X147772190Y-37116380D02*
X147772190Y-36116380D01*
X148200761Y-37116380D02*
X148200761Y-36592571D01*
X148153142Y-36497333D01*
X148057904Y-36449714D01*
X147915047Y-36449714D01*
X147819809Y-36497333D01*
X147772190Y-36544952D01*
X148676952Y-37116380D02*
X148676952Y-36449714D01*
X148676952Y-36116380D02*
X148629333Y-36164000D01*
X148676952Y-36211619D01*
X148724571Y-36164000D01*
X148676952Y-36116380D01*
X148676952Y-36211619D01*
D13*
X163890000Y-44510000D02*
X163890000Y-39310000D01*
X115570000Y-44510000D02*
X163890000Y-44510000D01*
X112970000Y-39310000D02*
X163890000Y-39310000D01*
X115570000Y-44510000D02*
X115570000Y-41910000D01*
X115570000Y-41910000D02*
X112970000Y-41910000D01*
X112970000Y-41910000D02*
X112970000Y-39310000D01*
X114300000Y-44510000D02*
X112970000Y-44510000D01*
X112970000Y-44510000D02*
X112970000Y-43180000D01*
X132394000Y-68386000D02*
X131064000Y-68386000D01*
X132394000Y-67056000D02*
X132394000Y-68386000D01*
X132394000Y-65786000D02*
X129734000Y-65786000D01*
X129734000Y-65786000D02*
X129734000Y-47946000D01*
X132394000Y-65786000D02*
X132394000Y-47946000D01*
X132394000Y-47946000D02*
X129734000Y-47946000D01*
X160842000Y-56582000D02*
X158182000Y-56582000D01*
X160842000Y-59182000D02*
X160842000Y-56582000D01*
X158182000Y-59182000D02*
X158182000Y-56582000D01*
X160842000Y-59182000D02*
X158182000Y-59182000D01*
X160842000Y-60452000D02*
X160842000Y-61782000D01*
X160842000Y-61782000D02*
X159512000Y-61782000D01*
X106874000Y-37398000D02*
X106874000Y-36068000D01*
X108204000Y-37398000D02*
X106874000Y-37398000D01*
X109474000Y-37398000D02*
X109474000Y-34738000D01*
X109474000Y-34738000D02*
X117154000Y-34738000D01*
X109474000Y-37398000D02*
X117154000Y-37398000D01*
X117154000Y-37398000D02*
X117154000Y-34738000D01*
X124774000Y-46422000D02*
X122114000Y-46422000D01*
X124774000Y-69342000D02*
X124774000Y-46422000D01*
X122114000Y-69342000D02*
X122114000Y-46422000D01*
X124774000Y-69342000D02*
X122114000Y-69342000D01*
X124774000Y-70612000D02*
X124774000Y-71942000D01*
X124774000Y-71942000D02*
X123444000Y-71942000D01*
X133410000Y-37398000D02*
X133410000Y-34738000D01*
X125730000Y-37398000D02*
X133410000Y-37398000D01*
X125730000Y-34738000D02*
X133410000Y-34738000D01*
X125730000Y-37398000D02*
X125730000Y-34738000D01*
X124460000Y-37398000D02*
X123130000Y-37398000D01*
X123130000Y-37398000D02*
X123130000Y-36068000D01*
X160722000Y-37398000D02*
X160722000Y-36068000D01*
X162052000Y-37398000D02*
X160722000Y-37398000D01*
X163322000Y-37398000D02*
X163322000Y-34738000D01*
X163322000Y-34738000D02*
X165922000Y-34738000D01*
X163322000Y-37398000D02*
X165922000Y-37398000D01*
X165922000Y-37398000D02*
X165922000Y-34738000D01*
D11*
X164298380Y-42243333D02*
X165012666Y-42243333D01*
X165155523Y-42290952D01*
X165250761Y-42386190D01*
X165298380Y-42529047D01*
X165298380Y-42624285D01*
X165298380Y-41243333D02*
X165298380Y-41814761D01*
X165298380Y-41529047D02*
X164298380Y-41529047D01*
X164441238Y-41624285D01*
X164536476Y-41719523D01*
X164584095Y-41814761D01*
X133524666Y-66508380D02*
X133524666Y-67222666D01*
X133477047Y-67365523D01*
X133381809Y-67460761D01*
X133238952Y-67508380D01*
X133143714Y-67508380D01*
X134429428Y-66841714D02*
X134429428Y-67508380D01*
X134191333Y-66460761D02*
X133953238Y-67175047D01*
X134572285Y-67175047D01*
X159178666Y-62698380D02*
X159178666Y-63412666D01*
X159131047Y-63555523D01*
X159035809Y-63650761D01*
X158892952Y-63698380D01*
X158797714Y-63698380D01*
X160083428Y-62698380D02*
X159892952Y-62698380D01*
X159797714Y-62746000D01*
X159750095Y-62793619D01*
X159654857Y-62936476D01*
X159607238Y-63126952D01*
X159607238Y-63507904D01*
X159654857Y-63603142D01*
X159702476Y-63650761D01*
X159797714Y-63698380D01*
X159988190Y-63698380D01*
X160083428Y-63650761D01*
X160131047Y-63603142D01*
X160178666Y-63507904D01*
X160178666Y-63269809D01*
X160131047Y-63174571D01*
X160083428Y-63126952D01*
X159988190Y-63079333D01*
X159797714Y-63079333D01*
X159702476Y-63126952D01*
X159654857Y-63174571D01*
X159607238Y-63269809D01*
X117816380Y-36655333D02*
X118530666Y-36655333D01*
X118673523Y-36702952D01*
X118768761Y-36798190D01*
X118816380Y-36941047D01*
X118816380Y-37036285D01*
X117911619Y-36226761D02*
X117864000Y-36179142D01*
X117816380Y-36083904D01*
X117816380Y-35845809D01*
X117864000Y-35750571D01*
X117911619Y-35702952D01*
X118006857Y-35655333D01*
X118102095Y-35655333D01*
X118244952Y-35702952D01*
X118816380Y-36274380D01*
X118816380Y-35655333D01*
X126158666Y-70572380D02*
X126158666Y-71286666D01*
X126111047Y-71429523D01*
X126015809Y-71524761D01*
X125872952Y-71572380D01*
X125777714Y-71572380D01*
X126539619Y-70572380D02*
X127158666Y-70572380D01*
X126825333Y-70953333D01*
X126968190Y-70953333D01*
X127063428Y-71000952D01*
X127111047Y-71048571D01*
X127158666Y-71143809D01*
X127158666Y-71381904D01*
X127111047Y-71477142D01*
X127063428Y-71524761D01*
X126968190Y-71572380D01*
X126682476Y-71572380D01*
X126587238Y-71524761D01*
X126539619Y-71477142D01*
X120864380Y-36401333D02*
X121578666Y-36401333D01*
X121721523Y-36448952D01*
X121816761Y-36544190D01*
X121864380Y-36687047D01*
X121864380Y-36782285D01*
X120864380Y-35448952D02*
X120864380Y-35925142D01*
X121340571Y-35972761D01*
X121292952Y-35925142D01*
X121245333Y-35829904D01*
X121245333Y-35591809D01*
X121292952Y-35496571D01*
X121340571Y-35448952D01*
X121435809Y-35401333D01*
X121673904Y-35401333D01*
X121769142Y-35448952D01*
X121816761Y-35496571D01*
X121864380Y-35591809D01*
X121864380Y-35829904D01*
X121816761Y-35925142D01*
X121769142Y-35972761D01*
X158710380Y-36401333D02*
X159424666Y-36401333D01*
X159567523Y-36448952D01*
X159662761Y-36544190D01*
X159710380Y-36687047D01*
X159710380Y-36782285D01*
X158710380Y-36020380D02*
X158710380Y-35353714D01*
X159710380Y-35782285D01*
M02*
