G04 #@! TF.GenerationSoftware,KiCad,Pcbnew,(5.1.0-0)*
G04 #@! TF.CreationDate,2019-04-08T09:35:23+05:30*
G04 #@! TF.ProjectId,CAN_board,43414e5f-626f-4617-9264-2e6b69636164,rev?*
G04 #@! TF.SameCoordinates,Original*
G04 #@! TF.FileFunction,Copper,L2,Bot*
G04 #@! TF.FilePolarity,Positive*
%FSLAX46Y46*%
G04 Gerber Fmt 4.6, Leading zero omitted, Abs format (unit mm)*
G04 Created by KiCad (PCBNEW (5.1.0-0)) date 2019-04-08 09:35:23*
%MOMM*%
%LPD*%
G04 APERTURE LIST*
%ADD10R,1.700000X1.700000*%
%ADD11O,1.700000X1.700000*%
%ADD12C,0.500000*%
%ADD13C,1.000000*%
%ADD14C,0.254000*%
G04 APERTURE END LIST*
D10*
X114300000Y-43180000D03*
D11*
X114300000Y-40640000D03*
X116840000Y-43180000D03*
X116840000Y-40640000D03*
X119380000Y-43180000D03*
X119380000Y-40640000D03*
X121920000Y-43180000D03*
X121920000Y-40640000D03*
X124460000Y-43180000D03*
X124460000Y-40640000D03*
X127000000Y-43180000D03*
X127000000Y-40640000D03*
X129540000Y-43180000D03*
X129540000Y-40640000D03*
X132080000Y-43180000D03*
X132080000Y-40640000D03*
X134620000Y-43180000D03*
X134620000Y-40640000D03*
X137160000Y-43180000D03*
X137160000Y-40640000D03*
X139700000Y-43180000D03*
X139700000Y-40640000D03*
X142240000Y-43180000D03*
X142240000Y-40640000D03*
X144780000Y-43180000D03*
X144780000Y-40640000D03*
X147320000Y-43180000D03*
X147320000Y-40640000D03*
X149860000Y-43180000D03*
X149860000Y-40640000D03*
X152400000Y-43180000D03*
X152400000Y-40640000D03*
X154940000Y-43180000D03*
X154940000Y-40640000D03*
X157480000Y-43180000D03*
X157480000Y-40640000D03*
X160020000Y-43180000D03*
X160020000Y-40640000D03*
X162560000Y-43180000D03*
X162560000Y-40640000D03*
X131064000Y-49276000D03*
X131064000Y-51816000D03*
X131064000Y-54356000D03*
X131064000Y-56896000D03*
X131064000Y-59436000D03*
X131064000Y-61976000D03*
X131064000Y-64516000D03*
D10*
X131064000Y-67056000D03*
X159512000Y-60452000D03*
D11*
X159512000Y-57912000D03*
X115824000Y-36068000D03*
X113284000Y-36068000D03*
X110744000Y-36068000D03*
D10*
X108204000Y-36068000D03*
X123444000Y-70612000D03*
D11*
X123444000Y-68072000D03*
X123444000Y-65532000D03*
X123444000Y-62992000D03*
X123444000Y-60452000D03*
X123444000Y-57912000D03*
X123444000Y-55372000D03*
X123444000Y-52832000D03*
X123444000Y-50292000D03*
X123444000Y-47752000D03*
D10*
X124460000Y-36068000D03*
D11*
X127000000Y-36068000D03*
X129540000Y-36068000D03*
X132080000Y-36068000D03*
X164592000Y-36068000D03*
D10*
X162052000Y-36068000D03*
D12*
X129463999Y-52755999D02*
X131064000Y-54356000D01*
X140639999Y-44780001D02*
X133019999Y-44780001D01*
X133019999Y-44780001D02*
X129463999Y-48336001D01*
X142240000Y-43180000D02*
X140639999Y-44780001D01*
X129463999Y-48336001D02*
X129463999Y-52755999D01*
X154940000Y-40640000D02*
X154940000Y-39437919D01*
X162560000Y-43688000D02*
X161544000Y-44704000D01*
X162560000Y-43180000D02*
X162560000Y-43688000D01*
D13*
X165608000Y-49276000D02*
X131064000Y-49276000D01*
X167132000Y-47752000D02*
X165608000Y-49276000D01*
X167132000Y-39624000D02*
X167132000Y-47752000D01*
X126111999Y-37918001D02*
X165426001Y-37918001D01*
X125149999Y-36956001D02*
X126111999Y-37918001D01*
X125149999Y-36757999D02*
X125149999Y-36956001D01*
X165426001Y-37918001D02*
X167132000Y-39624000D01*
X124460000Y-36068000D02*
X125149999Y-36757999D01*
X126352080Y-34217999D02*
X120722001Y-34217999D01*
X127000000Y-34865919D02*
X126352080Y-34217999D01*
X127000000Y-36068000D02*
X127000000Y-34865919D01*
X112450000Y-43180000D02*
X114300000Y-43180000D01*
X112449999Y-39751999D02*
X112450000Y-43180000D01*
X113411999Y-38789999D02*
X112449999Y-39751999D01*
X116150001Y-38789999D02*
X113411999Y-38789999D01*
X120722001Y-34217999D02*
X116150001Y-38789999D01*
X120650000Y-70612000D02*
X123444000Y-70612000D01*
X114300000Y-64262000D02*
X120650000Y-70612000D01*
X114300000Y-43180000D02*
X114300000Y-64262000D01*
X125294000Y-70612000D02*
X128850000Y-67056000D01*
X128850000Y-67056000D02*
X131064000Y-67056000D01*
X123444000Y-70612000D02*
X125294000Y-70612000D01*
D12*
X127000000Y-43180000D02*
X127000000Y-55880000D01*
X127000000Y-55880000D02*
X124968000Y-57912000D01*
X124968000Y-57912000D02*
X123444000Y-57912000D01*
D14*
G36*
X117311763Y-36023105D02*
G01*
X117287513Y-35776889D01*
X117202599Y-35496966D01*
X117064706Y-35238986D01*
X116879134Y-35012866D01*
X116653014Y-34827294D01*
X116395034Y-34689401D01*
X116115111Y-34604487D01*
X115896950Y-34583000D01*
X115751050Y-34583000D01*
X115532889Y-34604487D01*
X115252966Y-34689401D01*
X114994986Y-34827294D01*
X114768866Y-35012866D01*
X114583294Y-35238986D01*
X114554000Y-35293791D01*
X114524706Y-35238986D01*
X114339134Y-35012866D01*
X114113014Y-34827294D01*
X113855034Y-34689401D01*
X113575111Y-34604487D01*
X113356950Y-34583000D01*
X113211050Y-34583000D01*
X112992889Y-34604487D01*
X112712966Y-34689401D01*
X112454986Y-34827294D01*
X112228866Y-35012866D01*
X112043294Y-35238986D01*
X112014000Y-35293791D01*
X111984706Y-35238986D01*
X111799134Y-35012866D01*
X111573014Y-34827294D01*
X111315034Y-34689401D01*
X111035111Y-34604487D01*
X110816950Y-34583000D01*
X110671050Y-34583000D01*
X110452889Y-34604487D01*
X110172966Y-34689401D01*
X109914986Y-34827294D01*
X109688866Y-35012866D01*
X109664393Y-35042687D01*
X109643502Y-34973820D01*
X109584537Y-34863506D01*
X109505185Y-34766815D01*
X109408494Y-34687463D01*
X109298180Y-34628498D01*
X109178482Y-34592188D01*
X109054000Y-34579928D01*
X107354000Y-34579928D01*
X107229518Y-34592188D01*
X107109820Y-34628498D01*
X106999506Y-34687463D01*
X106902815Y-34766815D01*
X106823463Y-34863506D01*
X106764498Y-34973820D01*
X106728188Y-35093518D01*
X106715928Y-35218000D01*
X106715928Y-36918000D01*
X106728188Y-37042482D01*
X106764498Y-37162180D01*
X106823463Y-37272494D01*
X106902815Y-37369185D01*
X106999506Y-37448537D01*
X107109820Y-37507502D01*
X107229518Y-37543812D01*
X107354000Y-37556072D01*
X109054000Y-37556072D01*
X109178482Y-37543812D01*
X109298180Y-37507502D01*
X109408494Y-37448537D01*
X109505185Y-37369185D01*
X109584537Y-37272494D01*
X109643502Y-37162180D01*
X109664393Y-37093313D01*
X109688866Y-37123134D01*
X109914986Y-37308706D01*
X110172966Y-37446599D01*
X110452889Y-37531513D01*
X110671050Y-37553000D01*
X110816950Y-37553000D01*
X111035111Y-37531513D01*
X111315034Y-37446599D01*
X111573014Y-37308706D01*
X111799134Y-37123134D01*
X111984706Y-36897014D01*
X112014000Y-36842209D01*
X112043294Y-36897014D01*
X112228866Y-37123134D01*
X112454986Y-37308706D01*
X112712966Y-37446599D01*
X112992889Y-37531513D01*
X113211050Y-37553000D01*
X113356950Y-37553000D01*
X113575111Y-37531513D01*
X113855034Y-37446599D01*
X114113014Y-37308706D01*
X114339134Y-37123134D01*
X114524706Y-36897014D01*
X114554000Y-36842209D01*
X114583294Y-36897014D01*
X114768866Y-37123134D01*
X114994986Y-37308706D01*
X115252966Y-37446599D01*
X115532889Y-37531513D01*
X115751050Y-37553000D01*
X115781869Y-37553000D01*
X115679870Y-37654999D01*
X113467740Y-37654999D01*
X113411998Y-37649509D01*
X113356256Y-37654999D01*
X113356247Y-37654999D01*
X113189500Y-37671422D01*
X112975552Y-37736323D01*
X112778376Y-37841715D01*
X112605550Y-37983550D01*
X112570010Y-38026856D01*
X111686858Y-38910009D01*
X111643550Y-38945551D01*
X111501715Y-39118377D01*
X111443951Y-39226447D01*
X111396323Y-39315553D01*
X111331422Y-39529501D01*
X111309508Y-39751999D01*
X111314999Y-39807751D01*
X111315001Y-43124239D01*
X111309509Y-43180000D01*
X111331423Y-43402499D01*
X111396324Y-43616447D01*
X111501716Y-43813623D01*
X111643551Y-43986449D01*
X111816377Y-44128284D01*
X112013553Y-44233676D01*
X112227501Y-44298577D01*
X112394248Y-44315000D01*
X112394256Y-44315000D01*
X112450000Y-44320490D01*
X112505742Y-44315000D01*
X112882317Y-44315000D01*
X112919463Y-44384494D01*
X112998815Y-44481185D01*
X113095506Y-44560537D01*
X113165000Y-44597683D01*
X113165001Y-64206238D01*
X113159509Y-64262000D01*
X113181423Y-64484498D01*
X113246324Y-64698446D01*
X113246325Y-64698447D01*
X113351717Y-64895623D01*
X113493552Y-65068449D01*
X113536860Y-65103991D01*
X119808009Y-71375141D01*
X119843551Y-71418449D01*
X120016377Y-71560284D01*
X120213553Y-71665676D01*
X120347076Y-71706180D01*
X120427500Y-71730577D01*
X120649999Y-71752491D01*
X120705751Y-71747000D01*
X122026317Y-71747000D01*
X122063463Y-71816494D01*
X122142815Y-71913185D01*
X122239506Y-71992537D01*
X122349820Y-72051502D01*
X122469518Y-72087812D01*
X122594000Y-72100072D01*
X124294000Y-72100072D01*
X124418482Y-72087812D01*
X124538180Y-72051502D01*
X124648494Y-71992537D01*
X124745185Y-71913185D01*
X124824537Y-71816494D01*
X124861683Y-71747000D01*
X125238249Y-71747000D01*
X125294000Y-71752491D01*
X125349751Y-71747000D01*
X125349752Y-71747000D01*
X125516499Y-71730577D01*
X125730447Y-71665676D01*
X125927623Y-71560284D01*
X126100449Y-71418449D01*
X126135996Y-71375135D01*
X129320132Y-68191000D01*
X129646317Y-68191000D01*
X129683463Y-68260494D01*
X129762815Y-68357185D01*
X129859506Y-68436537D01*
X129969820Y-68495502D01*
X130089518Y-68531812D01*
X130214000Y-68544072D01*
X131914000Y-68544072D01*
X132038482Y-68531812D01*
X132158180Y-68495502D01*
X132268494Y-68436537D01*
X132365185Y-68357185D01*
X132444537Y-68260494D01*
X132503502Y-68150180D01*
X132539812Y-68030482D01*
X132552072Y-67906000D01*
X132552072Y-66206000D01*
X132539812Y-66081518D01*
X132503502Y-65961820D01*
X132444537Y-65851506D01*
X132365185Y-65754815D01*
X132268494Y-65675463D01*
X132158180Y-65616498D01*
X132077534Y-65592034D01*
X132161588Y-65516269D01*
X132335641Y-65282920D01*
X132460825Y-65020099D01*
X132505476Y-64872890D01*
X132384155Y-64643000D01*
X131191000Y-64643000D01*
X131191000Y-64663000D01*
X130937000Y-64663000D01*
X130937000Y-64643000D01*
X129743845Y-64643000D01*
X129622524Y-64872890D01*
X129667175Y-65020099D01*
X129792359Y-65282920D01*
X129966412Y-65516269D01*
X130050466Y-65592034D01*
X129969820Y-65616498D01*
X129859506Y-65675463D01*
X129762815Y-65754815D01*
X129683463Y-65851506D01*
X129646317Y-65921000D01*
X128905741Y-65921000D01*
X128849999Y-65915510D01*
X128794257Y-65921000D01*
X128794248Y-65921000D01*
X128627501Y-65937423D01*
X128413553Y-66002324D01*
X128216377Y-66107716D01*
X128043551Y-66249551D01*
X128008009Y-66292859D01*
X124848511Y-69452358D01*
X124824537Y-69407506D01*
X124745185Y-69310815D01*
X124648494Y-69231463D01*
X124538180Y-69172498D01*
X124457534Y-69148034D01*
X124541588Y-69072269D01*
X124715641Y-68838920D01*
X124840825Y-68576099D01*
X124885476Y-68428890D01*
X124764155Y-68199000D01*
X123571000Y-68199000D01*
X123571000Y-68219000D01*
X123317000Y-68219000D01*
X123317000Y-68199000D01*
X122123845Y-68199000D01*
X122002524Y-68428890D01*
X122047175Y-68576099D01*
X122172359Y-68838920D01*
X122346412Y-69072269D01*
X122430466Y-69148034D01*
X122349820Y-69172498D01*
X122239506Y-69231463D01*
X122142815Y-69310815D01*
X122063463Y-69407506D01*
X122026317Y-69477000D01*
X121120132Y-69477000D01*
X115435000Y-63791869D01*
X115435000Y-62992000D01*
X121951815Y-62992000D01*
X121980487Y-63283111D01*
X122065401Y-63563034D01*
X122203294Y-63821014D01*
X122388866Y-64047134D01*
X122614986Y-64232706D01*
X122669791Y-64262000D01*
X122614986Y-64291294D01*
X122388866Y-64476866D01*
X122203294Y-64702986D01*
X122065401Y-64960966D01*
X121980487Y-65240889D01*
X121951815Y-65532000D01*
X121980487Y-65823111D01*
X122065401Y-66103034D01*
X122203294Y-66361014D01*
X122388866Y-66587134D01*
X122614986Y-66772706D01*
X122679523Y-66807201D01*
X122562645Y-66876822D01*
X122346412Y-67071731D01*
X122172359Y-67305080D01*
X122047175Y-67567901D01*
X122002524Y-67715110D01*
X122123845Y-67945000D01*
X123317000Y-67945000D01*
X123317000Y-67925000D01*
X123571000Y-67925000D01*
X123571000Y-67945000D01*
X124764155Y-67945000D01*
X124885476Y-67715110D01*
X124840825Y-67567901D01*
X124715641Y-67305080D01*
X124541588Y-67071731D01*
X124325355Y-66876822D01*
X124208477Y-66807201D01*
X124273014Y-66772706D01*
X124499134Y-66587134D01*
X124684706Y-66361014D01*
X124822599Y-66103034D01*
X124907513Y-65823111D01*
X124936185Y-65532000D01*
X124907513Y-65240889D01*
X124822599Y-64960966D01*
X124684706Y-64702986D01*
X124499134Y-64476866D01*
X124273014Y-64291294D01*
X124218209Y-64262000D01*
X124273014Y-64232706D01*
X124499134Y-64047134D01*
X124684706Y-63821014D01*
X124822599Y-63563034D01*
X124907513Y-63283111D01*
X124936185Y-62992000D01*
X124907513Y-62700889D01*
X124822599Y-62420966D01*
X124684706Y-62162986D01*
X124499134Y-61936866D01*
X124273014Y-61751294D01*
X124208477Y-61716799D01*
X124325355Y-61647178D01*
X124541588Y-61452269D01*
X124715641Y-61218920D01*
X124840825Y-60956099D01*
X124885476Y-60808890D01*
X124764155Y-60579000D01*
X123571000Y-60579000D01*
X123571000Y-60599000D01*
X123317000Y-60599000D01*
X123317000Y-60579000D01*
X122123845Y-60579000D01*
X122002524Y-60808890D01*
X122047175Y-60956099D01*
X122172359Y-61218920D01*
X122346412Y-61452269D01*
X122562645Y-61647178D01*
X122679523Y-61716799D01*
X122614986Y-61751294D01*
X122388866Y-61936866D01*
X122203294Y-62162986D01*
X122065401Y-62420966D01*
X121980487Y-62700889D01*
X121951815Y-62992000D01*
X115435000Y-62992000D01*
X115435000Y-44597683D01*
X115504494Y-44560537D01*
X115601185Y-44481185D01*
X115680537Y-44384494D01*
X115739502Y-44274180D01*
X115760393Y-44205313D01*
X115784866Y-44235134D01*
X116010986Y-44420706D01*
X116268966Y-44558599D01*
X116548889Y-44643513D01*
X116767050Y-44665000D01*
X116912950Y-44665000D01*
X117131111Y-44643513D01*
X117411034Y-44558599D01*
X117669014Y-44420706D01*
X117895134Y-44235134D01*
X118080706Y-44009014D01*
X118110000Y-43954209D01*
X118139294Y-44009014D01*
X118324866Y-44235134D01*
X118550986Y-44420706D01*
X118808966Y-44558599D01*
X119088889Y-44643513D01*
X119307050Y-44665000D01*
X119452950Y-44665000D01*
X119671111Y-44643513D01*
X119951034Y-44558599D01*
X120209014Y-44420706D01*
X120435134Y-44235134D01*
X120620706Y-44009014D01*
X120650000Y-43954209D01*
X120679294Y-44009014D01*
X120864866Y-44235134D01*
X121090986Y-44420706D01*
X121348966Y-44558599D01*
X121628889Y-44643513D01*
X121847050Y-44665000D01*
X121992950Y-44665000D01*
X122211111Y-44643513D01*
X122491034Y-44558599D01*
X122749014Y-44420706D01*
X122975134Y-44235134D01*
X123160706Y-44009014D01*
X123195201Y-43944477D01*
X123264822Y-44061355D01*
X123459731Y-44277588D01*
X123693080Y-44451641D01*
X123955901Y-44576825D01*
X124103110Y-44621476D01*
X124333000Y-44500155D01*
X124333000Y-43307000D01*
X124313000Y-43307000D01*
X124313000Y-43053000D01*
X124333000Y-43053000D01*
X124333000Y-43033000D01*
X124587000Y-43033000D01*
X124587000Y-43053000D01*
X124607000Y-43053000D01*
X124607000Y-43307000D01*
X124587000Y-43307000D01*
X124587000Y-44500155D01*
X124816890Y-44621476D01*
X124964099Y-44576825D01*
X125226920Y-44451641D01*
X125460269Y-44277588D01*
X125655178Y-44061355D01*
X125724799Y-43944477D01*
X125759294Y-44009014D01*
X125944866Y-44235134D01*
X126115000Y-44374760D01*
X126115001Y-55513420D01*
X124621929Y-57006492D01*
X124499134Y-56856866D01*
X124273014Y-56671294D01*
X124218209Y-56642000D01*
X124273014Y-56612706D01*
X124499134Y-56427134D01*
X124684706Y-56201014D01*
X124822599Y-55943034D01*
X124907513Y-55663111D01*
X124936185Y-55372000D01*
X124907513Y-55080889D01*
X124822599Y-54800966D01*
X124684706Y-54542986D01*
X124499134Y-54316866D01*
X124273014Y-54131294D01*
X124218209Y-54102000D01*
X124273014Y-54072706D01*
X124499134Y-53887134D01*
X124684706Y-53661014D01*
X124822599Y-53403034D01*
X124907513Y-53123111D01*
X124936185Y-52832000D01*
X124907513Y-52540889D01*
X124822599Y-52260966D01*
X124684706Y-52002986D01*
X124499134Y-51776866D01*
X124273014Y-51591294D01*
X124218209Y-51562000D01*
X124273014Y-51532706D01*
X124499134Y-51347134D01*
X124684706Y-51121014D01*
X124822599Y-50863034D01*
X124907513Y-50583111D01*
X124936185Y-50292000D01*
X124907513Y-50000889D01*
X124822599Y-49720966D01*
X124684706Y-49462986D01*
X124499134Y-49236866D01*
X124273014Y-49051294D01*
X124218209Y-49022000D01*
X124273014Y-48992706D01*
X124499134Y-48807134D01*
X124684706Y-48581014D01*
X124822599Y-48323034D01*
X124907513Y-48043111D01*
X124936185Y-47752000D01*
X124907513Y-47460889D01*
X124822599Y-47180966D01*
X124684706Y-46922986D01*
X124499134Y-46696866D01*
X124273014Y-46511294D01*
X124015034Y-46373401D01*
X123735111Y-46288487D01*
X123516950Y-46267000D01*
X123371050Y-46267000D01*
X123152889Y-46288487D01*
X122872966Y-46373401D01*
X122614986Y-46511294D01*
X122388866Y-46696866D01*
X122203294Y-46922986D01*
X122065401Y-47180966D01*
X121980487Y-47460889D01*
X121951815Y-47752000D01*
X121980487Y-48043111D01*
X122065401Y-48323034D01*
X122203294Y-48581014D01*
X122388866Y-48807134D01*
X122614986Y-48992706D01*
X122669791Y-49022000D01*
X122614986Y-49051294D01*
X122388866Y-49236866D01*
X122203294Y-49462986D01*
X122065401Y-49720966D01*
X121980487Y-50000889D01*
X121951815Y-50292000D01*
X121980487Y-50583111D01*
X122065401Y-50863034D01*
X122203294Y-51121014D01*
X122388866Y-51347134D01*
X122614986Y-51532706D01*
X122669791Y-51562000D01*
X122614986Y-51591294D01*
X122388866Y-51776866D01*
X122203294Y-52002986D01*
X122065401Y-52260966D01*
X121980487Y-52540889D01*
X121951815Y-52832000D01*
X121980487Y-53123111D01*
X122065401Y-53403034D01*
X122203294Y-53661014D01*
X122388866Y-53887134D01*
X122614986Y-54072706D01*
X122669791Y-54102000D01*
X122614986Y-54131294D01*
X122388866Y-54316866D01*
X122203294Y-54542986D01*
X122065401Y-54800966D01*
X121980487Y-55080889D01*
X121951815Y-55372000D01*
X121980487Y-55663111D01*
X122065401Y-55943034D01*
X122203294Y-56201014D01*
X122388866Y-56427134D01*
X122614986Y-56612706D01*
X122669791Y-56642000D01*
X122614986Y-56671294D01*
X122388866Y-56856866D01*
X122203294Y-57082986D01*
X122065401Y-57340966D01*
X121980487Y-57620889D01*
X121951815Y-57912000D01*
X121980487Y-58203111D01*
X122065401Y-58483034D01*
X122203294Y-58741014D01*
X122388866Y-58967134D01*
X122614986Y-59152706D01*
X122679523Y-59187201D01*
X122562645Y-59256822D01*
X122346412Y-59451731D01*
X122172359Y-59685080D01*
X122047175Y-59947901D01*
X122002524Y-60095110D01*
X122123845Y-60325000D01*
X123317000Y-60325000D01*
X123317000Y-60305000D01*
X123571000Y-60305000D01*
X123571000Y-60325000D01*
X124764155Y-60325000D01*
X124885476Y-60095110D01*
X124840825Y-59947901D01*
X124715641Y-59685080D01*
X124541588Y-59451731D01*
X124325355Y-59256822D01*
X124208477Y-59187201D01*
X124273014Y-59152706D01*
X124499134Y-58967134D01*
X124638759Y-58797000D01*
X124924531Y-58797000D01*
X124968000Y-58801281D01*
X125011469Y-58797000D01*
X125011477Y-58797000D01*
X125141490Y-58784195D01*
X125308313Y-58733589D01*
X125462059Y-58651411D01*
X125596817Y-58540817D01*
X125624534Y-58507044D01*
X127595049Y-56536530D01*
X127628817Y-56508817D01*
X127739411Y-56374059D01*
X127821589Y-56220313D01*
X127872195Y-56053490D01*
X127885000Y-55923477D01*
X127885000Y-55923469D01*
X127889281Y-55880000D01*
X127885000Y-55836531D01*
X127885000Y-44374759D01*
X128055134Y-44235134D01*
X128240706Y-44009014D01*
X128270000Y-43954209D01*
X128299294Y-44009014D01*
X128484866Y-44235134D01*
X128710986Y-44420706D01*
X128968966Y-44558599D01*
X129248889Y-44643513D01*
X129467050Y-44665000D01*
X129612950Y-44665000D01*
X129831111Y-44643513D01*
X130111034Y-44558599D01*
X130369014Y-44420706D01*
X130595134Y-44235134D01*
X130780706Y-44009014D01*
X130810000Y-43954209D01*
X130839294Y-44009014D01*
X131024866Y-44235134D01*
X131250986Y-44420706D01*
X131508966Y-44558599D01*
X131788889Y-44643513D01*
X131894506Y-44653915D01*
X128868955Y-47679467D01*
X128835182Y-47707184D01*
X128724588Y-47841943D01*
X128642410Y-47995689D01*
X128607156Y-48111905D01*
X128593348Y-48157423D01*
X128591804Y-48162512D01*
X128578999Y-48292525D01*
X128578999Y-48292532D01*
X128574718Y-48336001D01*
X128578999Y-48379470D01*
X128579000Y-52712520D01*
X128574718Y-52755999D01*
X128591804Y-52929489D01*
X128642411Y-53096312D01*
X128724589Y-53250058D01*
X128807467Y-53351045D01*
X128807470Y-53351048D01*
X128835183Y-53384816D01*
X128868950Y-53412528D01*
X129593388Y-54136966D01*
X129571815Y-54356000D01*
X129600487Y-54647111D01*
X129685401Y-54927034D01*
X129823294Y-55185014D01*
X130008866Y-55411134D01*
X130234986Y-55596706D01*
X130289791Y-55626000D01*
X130234986Y-55655294D01*
X130008866Y-55840866D01*
X129823294Y-56066986D01*
X129685401Y-56324966D01*
X129600487Y-56604889D01*
X129571815Y-56896000D01*
X129600487Y-57187111D01*
X129685401Y-57467034D01*
X129823294Y-57725014D01*
X130008866Y-57951134D01*
X130234986Y-58136706D01*
X130289791Y-58166000D01*
X130234986Y-58195294D01*
X130008866Y-58380866D01*
X129823294Y-58606986D01*
X129685401Y-58864966D01*
X129600487Y-59144889D01*
X129571815Y-59436000D01*
X129600487Y-59727111D01*
X129685401Y-60007034D01*
X129823294Y-60265014D01*
X130008866Y-60491134D01*
X130234986Y-60676706D01*
X130289791Y-60706000D01*
X130234986Y-60735294D01*
X130008866Y-60920866D01*
X129823294Y-61146986D01*
X129685401Y-61404966D01*
X129600487Y-61684889D01*
X129571815Y-61976000D01*
X129600487Y-62267111D01*
X129685401Y-62547034D01*
X129823294Y-62805014D01*
X130008866Y-63031134D01*
X130234986Y-63216706D01*
X130299523Y-63251201D01*
X130182645Y-63320822D01*
X129966412Y-63515731D01*
X129792359Y-63749080D01*
X129667175Y-64011901D01*
X129622524Y-64159110D01*
X129743845Y-64389000D01*
X130937000Y-64389000D01*
X130937000Y-64369000D01*
X131191000Y-64369000D01*
X131191000Y-64389000D01*
X132384155Y-64389000D01*
X132505476Y-64159110D01*
X132460825Y-64011901D01*
X132335641Y-63749080D01*
X132161588Y-63515731D01*
X131945355Y-63320822D01*
X131828477Y-63251201D01*
X131893014Y-63216706D01*
X132119134Y-63031134D01*
X132304706Y-62805014D01*
X132442599Y-62547034D01*
X132527513Y-62267111D01*
X132556185Y-61976000D01*
X132527513Y-61684889D01*
X132442599Y-61404966D01*
X132304706Y-61146986D01*
X132119134Y-60920866D01*
X131893014Y-60735294D01*
X131838209Y-60706000D01*
X131893014Y-60676706D01*
X132119134Y-60491134D01*
X132304706Y-60265014D01*
X132442599Y-60007034D01*
X132527513Y-59727111D01*
X132556185Y-59436000D01*
X132527513Y-59144889D01*
X132442599Y-58864966D01*
X132304706Y-58606986D01*
X132119134Y-58380866D01*
X131893014Y-58195294D01*
X131838209Y-58166000D01*
X131893014Y-58136706D01*
X132119134Y-57951134D01*
X132151250Y-57912000D01*
X158019815Y-57912000D01*
X158048487Y-58203111D01*
X158133401Y-58483034D01*
X158271294Y-58741014D01*
X158456866Y-58967134D01*
X158486687Y-58991607D01*
X158417820Y-59012498D01*
X158307506Y-59071463D01*
X158210815Y-59150815D01*
X158131463Y-59247506D01*
X158072498Y-59357820D01*
X158036188Y-59477518D01*
X158023928Y-59602000D01*
X158023928Y-61302000D01*
X158036188Y-61426482D01*
X158072498Y-61546180D01*
X158131463Y-61656494D01*
X158210815Y-61753185D01*
X158307506Y-61832537D01*
X158417820Y-61891502D01*
X158537518Y-61927812D01*
X158662000Y-61940072D01*
X160362000Y-61940072D01*
X160486482Y-61927812D01*
X160606180Y-61891502D01*
X160716494Y-61832537D01*
X160813185Y-61753185D01*
X160892537Y-61656494D01*
X160951502Y-61546180D01*
X160987812Y-61426482D01*
X161000072Y-61302000D01*
X161000072Y-59602000D01*
X160987812Y-59477518D01*
X160951502Y-59357820D01*
X160892537Y-59247506D01*
X160813185Y-59150815D01*
X160716494Y-59071463D01*
X160606180Y-59012498D01*
X160537313Y-58991607D01*
X160567134Y-58967134D01*
X160752706Y-58741014D01*
X160890599Y-58483034D01*
X160975513Y-58203111D01*
X161004185Y-57912000D01*
X160975513Y-57620889D01*
X160890599Y-57340966D01*
X160752706Y-57082986D01*
X160567134Y-56856866D01*
X160341014Y-56671294D01*
X160083034Y-56533401D01*
X159803111Y-56448487D01*
X159584950Y-56427000D01*
X159439050Y-56427000D01*
X159220889Y-56448487D01*
X158940966Y-56533401D01*
X158682986Y-56671294D01*
X158456866Y-56856866D01*
X158271294Y-57082986D01*
X158133401Y-57340966D01*
X158048487Y-57620889D01*
X158019815Y-57912000D01*
X132151250Y-57912000D01*
X132304706Y-57725014D01*
X132442599Y-57467034D01*
X132527513Y-57187111D01*
X132556185Y-56896000D01*
X132527513Y-56604889D01*
X132442599Y-56324966D01*
X132304706Y-56066986D01*
X132119134Y-55840866D01*
X131893014Y-55655294D01*
X131838209Y-55626000D01*
X131893014Y-55596706D01*
X132119134Y-55411134D01*
X132304706Y-55185014D01*
X132442599Y-54927034D01*
X132527513Y-54647111D01*
X132556185Y-54356000D01*
X132527513Y-54064889D01*
X132442599Y-53784966D01*
X132304706Y-53526986D01*
X132119134Y-53300866D01*
X131893014Y-53115294D01*
X131838209Y-53086000D01*
X131893014Y-53056706D01*
X132119134Y-52871134D01*
X132304706Y-52645014D01*
X132442599Y-52387034D01*
X132527513Y-52107111D01*
X132556185Y-51816000D01*
X132527513Y-51524889D01*
X132442599Y-51244966D01*
X132304706Y-50986986D01*
X132119134Y-50760866D01*
X131893014Y-50575294D01*
X131838209Y-50546000D01*
X131893014Y-50516706D01*
X132021817Y-50411000D01*
X165552249Y-50411000D01*
X165608000Y-50416491D01*
X165663751Y-50411000D01*
X165663752Y-50411000D01*
X165830499Y-50394577D01*
X166044447Y-50329676D01*
X166241623Y-50224284D01*
X166414449Y-50082449D01*
X166449996Y-50039135D01*
X167895140Y-48593991D01*
X167938449Y-48558449D01*
X168080284Y-48385623D01*
X168185676Y-48188447D01*
X168250577Y-47974499D01*
X168267000Y-47807752D01*
X168267000Y-47807743D01*
X168272490Y-47752001D01*
X168267000Y-47696259D01*
X168267000Y-39679751D01*
X168272491Y-39624000D01*
X168250577Y-39401501D01*
X168185676Y-39187553D01*
X168116691Y-39058491D01*
X168080284Y-38990377D01*
X167938449Y-38817551D01*
X167895140Y-38782009D01*
X166267997Y-37154866D01*
X166232450Y-37111552D01*
X166059624Y-36969717D01*
X165862448Y-36864325D01*
X165851890Y-36861122D01*
X165970599Y-36639034D01*
X166055513Y-36359111D01*
X166084185Y-36068000D01*
X166055513Y-35776889D01*
X165970599Y-35496966D01*
X165832706Y-35238986D01*
X165647134Y-35012866D01*
X165421014Y-34827294D01*
X165163034Y-34689401D01*
X164883111Y-34604487D01*
X164664950Y-34583000D01*
X164519050Y-34583000D01*
X164300889Y-34604487D01*
X164020966Y-34689401D01*
X163762986Y-34827294D01*
X163536866Y-35012866D01*
X163512393Y-35042687D01*
X163491502Y-34973820D01*
X163432537Y-34863506D01*
X163353185Y-34766815D01*
X163256494Y-34687463D01*
X163146180Y-34628498D01*
X163026482Y-34592188D01*
X162902000Y-34579928D01*
X161202000Y-34579928D01*
X161077518Y-34592188D01*
X160957820Y-34628498D01*
X160847506Y-34687463D01*
X160750815Y-34766815D01*
X160671463Y-34863506D01*
X160612498Y-34973820D01*
X160576188Y-35093518D01*
X160563928Y-35218000D01*
X160563928Y-36783001D01*
X133374270Y-36783001D01*
X133424157Y-36699252D01*
X133521481Y-36424891D01*
X133400814Y-36195000D01*
X132207000Y-36195000D01*
X132207000Y-36215000D01*
X131953000Y-36215000D01*
X131953000Y-36195000D01*
X129667000Y-36195000D01*
X129667000Y-36215000D01*
X129413000Y-36215000D01*
X129413000Y-36195000D01*
X129393000Y-36195000D01*
X129393000Y-35941000D01*
X129413000Y-35941000D01*
X129413000Y-34747845D01*
X129667000Y-34747845D01*
X129667000Y-35941000D01*
X131953000Y-35941000D01*
X131953000Y-34747845D01*
X132207000Y-34747845D01*
X132207000Y-35941000D01*
X133400814Y-35941000D01*
X133521481Y-35711109D01*
X133424157Y-35436748D01*
X133275178Y-35186645D01*
X133080269Y-34970412D01*
X132846920Y-34796359D01*
X132584099Y-34671175D01*
X132436890Y-34626524D01*
X132207000Y-34747845D01*
X131953000Y-34747845D01*
X131723110Y-34626524D01*
X131575901Y-34671175D01*
X131313080Y-34796359D01*
X131079731Y-34970412D01*
X130884822Y-35186645D01*
X130810000Y-35312255D01*
X130735178Y-35186645D01*
X130540269Y-34970412D01*
X130306920Y-34796359D01*
X130044099Y-34671175D01*
X129896890Y-34626524D01*
X129667000Y-34747845D01*
X129413000Y-34747845D01*
X129183110Y-34626524D01*
X129035901Y-34671175D01*
X128773080Y-34796359D01*
X128539731Y-34970412D01*
X128344822Y-35186645D01*
X128275201Y-35303523D01*
X128240706Y-35238986D01*
X128135000Y-35110183D01*
X128135000Y-34921660D01*
X128140490Y-34865918D01*
X128135000Y-34810176D01*
X128135000Y-34810167D01*
X128118577Y-34643420D01*
X128053676Y-34429472D01*
X127948284Y-34232296D01*
X127806449Y-34059470D01*
X127763135Y-34023923D01*
X127215212Y-33476000D01*
X169978001Y-33476000D01*
X169978000Y-34255122D01*
X169978000Y-34509124D01*
X169978001Y-73523513D01*
X169978000Y-73523523D01*
X169978000Y-73712000D01*
X106374000Y-73712000D01*
X106374000Y-33476000D01*
X119858868Y-33476000D01*
X117311763Y-36023105D01*
X117311763Y-36023105D01*
G37*
X117311763Y-36023105D02*
X117287513Y-35776889D01*
X117202599Y-35496966D01*
X117064706Y-35238986D01*
X116879134Y-35012866D01*
X116653014Y-34827294D01*
X116395034Y-34689401D01*
X116115111Y-34604487D01*
X115896950Y-34583000D01*
X115751050Y-34583000D01*
X115532889Y-34604487D01*
X115252966Y-34689401D01*
X114994986Y-34827294D01*
X114768866Y-35012866D01*
X114583294Y-35238986D01*
X114554000Y-35293791D01*
X114524706Y-35238986D01*
X114339134Y-35012866D01*
X114113014Y-34827294D01*
X113855034Y-34689401D01*
X113575111Y-34604487D01*
X113356950Y-34583000D01*
X113211050Y-34583000D01*
X112992889Y-34604487D01*
X112712966Y-34689401D01*
X112454986Y-34827294D01*
X112228866Y-35012866D01*
X112043294Y-35238986D01*
X112014000Y-35293791D01*
X111984706Y-35238986D01*
X111799134Y-35012866D01*
X111573014Y-34827294D01*
X111315034Y-34689401D01*
X111035111Y-34604487D01*
X110816950Y-34583000D01*
X110671050Y-34583000D01*
X110452889Y-34604487D01*
X110172966Y-34689401D01*
X109914986Y-34827294D01*
X109688866Y-35012866D01*
X109664393Y-35042687D01*
X109643502Y-34973820D01*
X109584537Y-34863506D01*
X109505185Y-34766815D01*
X109408494Y-34687463D01*
X109298180Y-34628498D01*
X109178482Y-34592188D01*
X109054000Y-34579928D01*
X107354000Y-34579928D01*
X107229518Y-34592188D01*
X107109820Y-34628498D01*
X106999506Y-34687463D01*
X106902815Y-34766815D01*
X106823463Y-34863506D01*
X106764498Y-34973820D01*
X106728188Y-35093518D01*
X106715928Y-35218000D01*
X106715928Y-36918000D01*
X106728188Y-37042482D01*
X106764498Y-37162180D01*
X106823463Y-37272494D01*
X106902815Y-37369185D01*
X106999506Y-37448537D01*
X107109820Y-37507502D01*
X107229518Y-37543812D01*
X107354000Y-37556072D01*
X109054000Y-37556072D01*
X109178482Y-37543812D01*
X109298180Y-37507502D01*
X109408494Y-37448537D01*
X109505185Y-37369185D01*
X109584537Y-37272494D01*
X109643502Y-37162180D01*
X109664393Y-37093313D01*
X109688866Y-37123134D01*
X109914986Y-37308706D01*
X110172966Y-37446599D01*
X110452889Y-37531513D01*
X110671050Y-37553000D01*
X110816950Y-37553000D01*
X111035111Y-37531513D01*
X111315034Y-37446599D01*
X111573014Y-37308706D01*
X111799134Y-37123134D01*
X111984706Y-36897014D01*
X112014000Y-36842209D01*
X112043294Y-36897014D01*
X112228866Y-37123134D01*
X112454986Y-37308706D01*
X112712966Y-37446599D01*
X112992889Y-37531513D01*
X113211050Y-37553000D01*
X113356950Y-37553000D01*
X113575111Y-37531513D01*
X113855034Y-37446599D01*
X114113014Y-37308706D01*
X114339134Y-37123134D01*
X114524706Y-36897014D01*
X114554000Y-36842209D01*
X114583294Y-36897014D01*
X114768866Y-37123134D01*
X114994986Y-37308706D01*
X115252966Y-37446599D01*
X115532889Y-37531513D01*
X115751050Y-37553000D01*
X115781869Y-37553000D01*
X115679870Y-37654999D01*
X113467740Y-37654999D01*
X113411998Y-37649509D01*
X113356256Y-37654999D01*
X113356247Y-37654999D01*
X113189500Y-37671422D01*
X112975552Y-37736323D01*
X112778376Y-37841715D01*
X112605550Y-37983550D01*
X112570010Y-38026856D01*
X111686858Y-38910009D01*
X111643550Y-38945551D01*
X111501715Y-39118377D01*
X111443951Y-39226447D01*
X111396323Y-39315553D01*
X111331422Y-39529501D01*
X111309508Y-39751999D01*
X111314999Y-39807751D01*
X111315001Y-43124239D01*
X111309509Y-43180000D01*
X111331423Y-43402499D01*
X111396324Y-43616447D01*
X111501716Y-43813623D01*
X111643551Y-43986449D01*
X111816377Y-44128284D01*
X112013553Y-44233676D01*
X112227501Y-44298577D01*
X112394248Y-44315000D01*
X112394256Y-44315000D01*
X112450000Y-44320490D01*
X112505742Y-44315000D01*
X112882317Y-44315000D01*
X112919463Y-44384494D01*
X112998815Y-44481185D01*
X113095506Y-44560537D01*
X113165000Y-44597683D01*
X113165001Y-64206238D01*
X113159509Y-64262000D01*
X113181423Y-64484498D01*
X113246324Y-64698446D01*
X113246325Y-64698447D01*
X113351717Y-64895623D01*
X113493552Y-65068449D01*
X113536860Y-65103991D01*
X119808009Y-71375141D01*
X119843551Y-71418449D01*
X120016377Y-71560284D01*
X120213553Y-71665676D01*
X120347076Y-71706180D01*
X120427500Y-71730577D01*
X120649999Y-71752491D01*
X120705751Y-71747000D01*
X122026317Y-71747000D01*
X122063463Y-71816494D01*
X122142815Y-71913185D01*
X122239506Y-71992537D01*
X122349820Y-72051502D01*
X122469518Y-72087812D01*
X122594000Y-72100072D01*
X124294000Y-72100072D01*
X124418482Y-72087812D01*
X124538180Y-72051502D01*
X124648494Y-71992537D01*
X124745185Y-71913185D01*
X124824537Y-71816494D01*
X124861683Y-71747000D01*
X125238249Y-71747000D01*
X125294000Y-71752491D01*
X125349751Y-71747000D01*
X125349752Y-71747000D01*
X125516499Y-71730577D01*
X125730447Y-71665676D01*
X125927623Y-71560284D01*
X126100449Y-71418449D01*
X126135996Y-71375135D01*
X129320132Y-68191000D01*
X129646317Y-68191000D01*
X129683463Y-68260494D01*
X129762815Y-68357185D01*
X129859506Y-68436537D01*
X129969820Y-68495502D01*
X130089518Y-68531812D01*
X130214000Y-68544072D01*
X131914000Y-68544072D01*
X132038482Y-68531812D01*
X132158180Y-68495502D01*
X132268494Y-68436537D01*
X132365185Y-68357185D01*
X132444537Y-68260494D01*
X132503502Y-68150180D01*
X132539812Y-68030482D01*
X132552072Y-67906000D01*
X132552072Y-66206000D01*
X132539812Y-66081518D01*
X132503502Y-65961820D01*
X132444537Y-65851506D01*
X132365185Y-65754815D01*
X132268494Y-65675463D01*
X132158180Y-65616498D01*
X132077534Y-65592034D01*
X132161588Y-65516269D01*
X132335641Y-65282920D01*
X132460825Y-65020099D01*
X132505476Y-64872890D01*
X132384155Y-64643000D01*
X131191000Y-64643000D01*
X131191000Y-64663000D01*
X130937000Y-64663000D01*
X130937000Y-64643000D01*
X129743845Y-64643000D01*
X129622524Y-64872890D01*
X129667175Y-65020099D01*
X129792359Y-65282920D01*
X129966412Y-65516269D01*
X130050466Y-65592034D01*
X129969820Y-65616498D01*
X129859506Y-65675463D01*
X129762815Y-65754815D01*
X129683463Y-65851506D01*
X129646317Y-65921000D01*
X128905741Y-65921000D01*
X128849999Y-65915510D01*
X128794257Y-65921000D01*
X128794248Y-65921000D01*
X128627501Y-65937423D01*
X128413553Y-66002324D01*
X128216377Y-66107716D01*
X128043551Y-66249551D01*
X128008009Y-66292859D01*
X124848511Y-69452358D01*
X124824537Y-69407506D01*
X124745185Y-69310815D01*
X124648494Y-69231463D01*
X124538180Y-69172498D01*
X124457534Y-69148034D01*
X124541588Y-69072269D01*
X124715641Y-68838920D01*
X124840825Y-68576099D01*
X124885476Y-68428890D01*
X124764155Y-68199000D01*
X123571000Y-68199000D01*
X123571000Y-68219000D01*
X123317000Y-68219000D01*
X123317000Y-68199000D01*
X122123845Y-68199000D01*
X122002524Y-68428890D01*
X122047175Y-68576099D01*
X122172359Y-68838920D01*
X122346412Y-69072269D01*
X122430466Y-69148034D01*
X122349820Y-69172498D01*
X122239506Y-69231463D01*
X122142815Y-69310815D01*
X122063463Y-69407506D01*
X122026317Y-69477000D01*
X121120132Y-69477000D01*
X115435000Y-63791869D01*
X115435000Y-62992000D01*
X121951815Y-62992000D01*
X121980487Y-63283111D01*
X122065401Y-63563034D01*
X122203294Y-63821014D01*
X122388866Y-64047134D01*
X122614986Y-64232706D01*
X122669791Y-64262000D01*
X122614986Y-64291294D01*
X122388866Y-64476866D01*
X122203294Y-64702986D01*
X122065401Y-64960966D01*
X121980487Y-65240889D01*
X121951815Y-65532000D01*
X121980487Y-65823111D01*
X122065401Y-66103034D01*
X122203294Y-66361014D01*
X122388866Y-66587134D01*
X122614986Y-66772706D01*
X122679523Y-66807201D01*
X122562645Y-66876822D01*
X122346412Y-67071731D01*
X122172359Y-67305080D01*
X122047175Y-67567901D01*
X122002524Y-67715110D01*
X122123845Y-67945000D01*
X123317000Y-67945000D01*
X123317000Y-67925000D01*
X123571000Y-67925000D01*
X123571000Y-67945000D01*
X124764155Y-67945000D01*
X124885476Y-67715110D01*
X124840825Y-67567901D01*
X124715641Y-67305080D01*
X124541588Y-67071731D01*
X124325355Y-66876822D01*
X124208477Y-66807201D01*
X124273014Y-66772706D01*
X124499134Y-66587134D01*
X124684706Y-66361014D01*
X124822599Y-66103034D01*
X124907513Y-65823111D01*
X124936185Y-65532000D01*
X124907513Y-65240889D01*
X124822599Y-64960966D01*
X124684706Y-64702986D01*
X124499134Y-64476866D01*
X124273014Y-64291294D01*
X124218209Y-64262000D01*
X124273014Y-64232706D01*
X124499134Y-64047134D01*
X124684706Y-63821014D01*
X124822599Y-63563034D01*
X124907513Y-63283111D01*
X124936185Y-62992000D01*
X124907513Y-62700889D01*
X124822599Y-62420966D01*
X124684706Y-62162986D01*
X124499134Y-61936866D01*
X124273014Y-61751294D01*
X124208477Y-61716799D01*
X124325355Y-61647178D01*
X124541588Y-61452269D01*
X124715641Y-61218920D01*
X124840825Y-60956099D01*
X124885476Y-60808890D01*
X124764155Y-60579000D01*
X123571000Y-60579000D01*
X123571000Y-60599000D01*
X123317000Y-60599000D01*
X123317000Y-60579000D01*
X122123845Y-60579000D01*
X122002524Y-60808890D01*
X122047175Y-60956099D01*
X122172359Y-61218920D01*
X122346412Y-61452269D01*
X122562645Y-61647178D01*
X122679523Y-61716799D01*
X122614986Y-61751294D01*
X122388866Y-61936866D01*
X122203294Y-62162986D01*
X122065401Y-62420966D01*
X121980487Y-62700889D01*
X121951815Y-62992000D01*
X115435000Y-62992000D01*
X115435000Y-44597683D01*
X115504494Y-44560537D01*
X115601185Y-44481185D01*
X115680537Y-44384494D01*
X115739502Y-44274180D01*
X115760393Y-44205313D01*
X115784866Y-44235134D01*
X116010986Y-44420706D01*
X116268966Y-44558599D01*
X116548889Y-44643513D01*
X116767050Y-44665000D01*
X116912950Y-44665000D01*
X117131111Y-44643513D01*
X117411034Y-44558599D01*
X117669014Y-44420706D01*
X117895134Y-44235134D01*
X118080706Y-44009014D01*
X118110000Y-43954209D01*
X118139294Y-44009014D01*
X118324866Y-44235134D01*
X118550986Y-44420706D01*
X118808966Y-44558599D01*
X119088889Y-44643513D01*
X119307050Y-44665000D01*
X119452950Y-44665000D01*
X119671111Y-44643513D01*
X119951034Y-44558599D01*
X120209014Y-44420706D01*
X120435134Y-44235134D01*
X120620706Y-44009014D01*
X120650000Y-43954209D01*
X120679294Y-44009014D01*
X120864866Y-44235134D01*
X121090986Y-44420706D01*
X121348966Y-44558599D01*
X121628889Y-44643513D01*
X121847050Y-44665000D01*
X121992950Y-44665000D01*
X122211111Y-44643513D01*
X122491034Y-44558599D01*
X122749014Y-44420706D01*
X122975134Y-44235134D01*
X123160706Y-44009014D01*
X123195201Y-43944477D01*
X123264822Y-44061355D01*
X123459731Y-44277588D01*
X123693080Y-44451641D01*
X123955901Y-44576825D01*
X124103110Y-44621476D01*
X124333000Y-44500155D01*
X124333000Y-43307000D01*
X124313000Y-43307000D01*
X124313000Y-43053000D01*
X124333000Y-43053000D01*
X124333000Y-43033000D01*
X124587000Y-43033000D01*
X124587000Y-43053000D01*
X124607000Y-43053000D01*
X124607000Y-43307000D01*
X124587000Y-43307000D01*
X124587000Y-44500155D01*
X124816890Y-44621476D01*
X124964099Y-44576825D01*
X125226920Y-44451641D01*
X125460269Y-44277588D01*
X125655178Y-44061355D01*
X125724799Y-43944477D01*
X125759294Y-44009014D01*
X125944866Y-44235134D01*
X126115000Y-44374760D01*
X126115001Y-55513420D01*
X124621929Y-57006492D01*
X124499134Y-56856866D01*
X124273014Y-56671294D01*
X124218209Y-56642000D01*
X124273014Y-56612706D01*
X124499134Y-56427134D01*
X124684706Y-56201014D01*
X124822599Y-55943034D01*
X124907513Y-55663111D01*
X124936185Y-55372000D01*
X124907513Y-55080889D01*
X124822599Y-54800966D01*
X124684706Y-54542986D01*
X124499134Y-54316866D01*
X124273014Y-54131294D01*
X124218209Y-54102000D01*
X124273014Y-54072706D01*
X124499134Y-53887134D01*
X124684706Y-53661014D01*
X124822599Y-53403034D01*
X124907513Y-53123111D01*
X124936185Y-52832000D01*
X124907513Y-52540889D01*
X124822599Y-52260966D01*
X124684706Y-52002986D01*
X124499134Y-51776866D01*
X124273014Y-51591294D01*
X124218209Y-51562000D01*
X124273014Y-51532706D01*
X124499134Y-51347134D01*
X124684706Y-51121014D01*
X124822599Y-50863034D01*
X124907513Y-50583111D01*
X124936185Y-50292000D01*
X124907513Y-50000889D01*
X124822599Y-49720966D01*
X124684706Y-49462986D01*
X124499134Y-49236866D01*
X124273014Y-49051294D01*
X124218209Y-49022000D01*
X124273014Y-48992706D01*
X124499134Y-48807134D01*
X124684706Y-48581014D01*
X124822599Y-48323034D01*
X124907513Y-48043111D01*
X124936185Y-47752000D01*
X124907513Y-47460889D01*
X124822599Y-47180966D01*
X124684706Y-46922986D01*
X124499134Y-46696866D01*
X124273014Y-46511294D01*
X124015034Y-46373401D01*
X123735111Y-46288487D01*
X123516950Y-46267000D01*
X123371050Y-46267000D01*
X123152889Y-46288487D01*
X122872966Y-46373401D01*
X122614986Y-46511294D01*
X122388866Y-46696866D01*
X122203294Y-46922986D01*
X122065401Y-47180966D01*
X121980487Y-47460889D01*
X121951815Y-47752000D01*
X121980487Y-48043111D01*
X122065401Y-48323034D01*
X122203294Y-48581014D01*
X122388866Y-48807134D01*
X122614986Y-48992706D01*
X122669791Y-49022000D01*
X122614986Y-49051294D01*
X122388866Y-49236866D01*
X122203294Y-49462986D01*
X122065401Y-49720966D01*
X121980487Y-50000889D01*
X121951815Y-50292000D01*
X121980487Y-50583111D01*
X122065401Y-50863034D01*
X122203294Y-51121014D01*
X122388866Y-51347134D01*
X122614986Y-51532706D01*
X122669791Y-51562000D01*
X122614986Y-51591294D01*
X122388866Y-51776866D01*
X122203294Y-52002986D01*
X122065401Y-52260966D01*
X121980487Y-52540889D01*
X121951815Y-52832000D01*
X121980487Y-53123111D01*
X122065401Y-53403034D01*
X122203294Y-53661014D01*
X122388866Y-53887134D01*
X122614986Y-54072706D01*
X122669791Y-54102000D01*
X122614986Y-54131294D01*
X122388866Y-54316866D01*
X122203294Y-54542986D01*
X122065401Y-54800966D01*
X121980487Y-55080889D01*
X121951815Y-55372000D01*
X121980487Y-55663111D01*
X122065401Y-55943034D01*
X122203294Y-56201014D01*
X122388866Y-56427134D01*
X122614986Y-56612706D01*
X122669791Y-56642000D01*
X122614986Y-56671294D01*
X122388866Y-56856866D01*
X122203294Y-57082986D01*
X122065401Y-57340966D01*
X121980487Y-57620889D01*
X121951815Y-57912000D01*
X121980487Y-58203111D01*
X122065401Y-58483034D01*
X122203294Y-58741014D01*
X122388866Y-58967134D01*
X122614986Y-59152706D01*
X122679523Y-59187201D01*
X122562645Y-59256822D01*
X122346412Y-59451731D01*
X122172359Y-59685080D01*
X122047175Y-59947901D01*
X122002524Y-60095110D01*
X122123845Y-60325000D01*
X123317000Y-60325000D01*
X123317000Y-60305000D01*
X123571000Y-60305000D01*
X123571000Y-60325000D01*
X124764155Y-60325000D01*
X124885476Y-60095110D01*
X124840825Y-59947901D01*
X124715641Y-59685080D01*
X124541588Y-59451731D01*
X124325355Y-59256822D01*
X124208477Y-59187201D01*
X124273014Y-59152706D01*
X124499134Y-58967134D01*
X124638759Y-58797000D01*
X124924531Y-58797000D01*
X124968000Y-58801281D01*
X125011469Y-58797000D01*
X125011477Y-58797000D01*
X125141490Y-58784195D01*
X125308313Y-58733589D01*
X125462059Y-58651411D01*
X125596817Y-58540817D01*
X125624534Y-58507044D01*
X127595049Y-56536530D01*
X127628817Y-56508817D01*
X127739411Y-56374059D01*
X127821589Y-56220313D01*
X127872195Y-56053490D01*
X127885000Y-55923477D01*
X127885000Y-55923469D01*
X127889281Y-55880000D01*
X127885000Y-55836531D01*
X127885000Y-44374759D01*
X128055134Y-44235134D01*
X128240706Y-44009014D01*
X128270000Y-43954209D01*
X128299294Y-44009014D01*
X128484866Y-44235134D01*
X128710986Y-44420706D01*
X128968966Y-44558599D01*
X129248889Y-44643513D01*
X129467050Y-44665000D01*
X129612950Y-44665000D01*
X129831111Y-44643513D01*
X130111034Y-44558599D01*
X130369014Y-44420706D01*
X130595134Y-44235134D01*
X130780706Y-44009014D01*
X130810000Y-43954209D01*
X130839294Y-44009014D01*
X131024866Y-44235134D01*
X131250986Y-44420706D01*
X131508966Y-44558599D01*
X131788889Y-44643513D01*
X131894506Y-44653915D01*
X128868955Y-47679467D01*
X128835182Y-47707184D01*
X128724588Y-47841943D01*
X128642410Y-47995689D01*
X128607156Y-48111905D01*
X128593348Y-48157423D01*
X128591804Y-48162512D01*
X128578999Y-48292525D01*
X128578999Y-48292532D01*
X128574718Y-48336001D01*
X128578999Y-48379470D01*
X128579000Y-52712520D01*
X128574718Y-52755999D01*
X128591804Y-52929489D01*
X128642411Y-53096312D01*
X128724589Y-53250058D01*
X128807467Y-53351045D01*
X128807470Y-53351048D01*
X128835183Y-53384816D01*
X128868950Y-53412528D01*
X129593388Y-54136966D01*
X129571815Y-54356000D01*
X129600487Y-54647111D01*
X129685401Y-54927034D01*
X129823294Y-55185014D01*
X130008866Y-55411134D01*
X130234986Y-55596706D01*
X130289791Y-55626000D01*
X130234986Y-55655294D01*
X130008866Y-55840866D01*
X129823294Y-56066986D01*
X129685401Y-56324966D01*
X129600487Y-56604889D01*
X129571815Y-56896000D01*
X129600487Y-57187111D01*
X129685401Y-57467034D01*
X129823294Y-57725014D01*
X130008866Y-57951134D01*
X130234986Y-58136706D01*
X130289791Y-58166000D01*
X130234986Y-58195294D01*
X130008866Y-58380866D01*
X129823294Y-58606986D01*
X129685401Y-58864966D01*
X129600487Y-59144889D01*
X129571815Y-59436000D01*
X129600487Y-59727111D01*
X129685401Y-60007034D01*
X129823294Y-60265014D01*
X130008866Y-60491134D01*
X130234986Y-60676706D01*
X130289791Y-60706000D01*
X130234986Y-60735294D01*
X130008866Y-60920866D01*
X129823294Y-61146986D01*
X129685401Y-61404966D01*
X129600487Y-61684889D01*
X129571815Y-61976000D01*
X129600487Y-62267111D01*
X129685401Y-62547034D01*
X129823294Y-62805014D01*
X130008866Y-63031134D01*
X130234986Y-63216706D01*
X130299523Y-63251201D01*
X130182645Y-63320822D01*
X129966412Y-63515731D01*
X129792359Y-63749080D01*
X129667175Y-64011901D01*
X129622524Y-64159110D01*
X129743845Y-64389000D01*
X130937000Y-64389000D01*
X130937000Y-64369000D01*
X131191000Y-64369000D01*
X131191000Y-64389000D01*
X132384155Y-64389000D01*
X132505476Y-64159110D01*
X132460825Y-64011901D01*
X132335641Y-63749080D01*
X132161588Y-63515731D01*
X131945355Y-63320822D01*
X131828477Y-63251201D01*
X131893014Y-63216706D01*
X132119134Y-63031134D01*
X132304706Y-62805014D01*
X132442599Y-62547034D01*
X132527513Y-62267111D01*
X132556185Y-61976000D01*
X132527513Y-61684889D01*
X132442599Y-61404966D01*
X132304706Y-61146986D01*
X132119134Y-60920866D01*
X131893014Y-60735294D01*
X131838209Y-60706000D01*
X131893014Y-60676706D01*
X132119134Y-60491134D01*
X132304706Y-60265014D01*
X132442599Y-60007034D01*
X132527513Y-59727111D01*
X132556185Y-59436000D01*
X132527513Y-59144889D01*
X132442599Y-58864966D01*
X132304706Y-58606986D01*
X132119134Y-58380866D01*
X131893014Y-58195294D01*
X131838209Y-58166000D01*
X131893014Y-58136706D01*
X132119134Y-57951134D01*
X132151250Y-57912000D01*
X158019815Y-57912000D01*
X158048487Y-58203111D01*
X158133401Y-58483034D01*
X158271294Y-58741014D01*
X158456866Y-58967134D01*
X158486687Y-58991607D01*
X158417820Y-59012498D01*
X158307506Y-59071463D01*
X158210815Y-59150815D01*
X158131463Y-59247506D01*
X158072498Y-59357820D01*
X158036188Y-59477518D01*
X158023928Y-59602000D01*
X158023928Y-61302000D01*
X158036188Y-61426482D01*
X158072498Y-61546180D01*
X158131463Y-61656494D01*
X158210815Y-61753185D01*
X158307506Y-61832537D01*
X158417820Y-61891502D01*
X158537518Y-61927812D01*
X158662000Y-61940072D01*
X160362000Y-61940072D01*
X160486482Y-61927812D01*
X160606180Y-61891502D01*
X160716494Y-61832537D01*
X160813185Y-61753185D01*
X160892537Y-61656494D01*
X160951502Y-61546180D01*
X160987812Y-61426482D01*
X161000072Y-61302000D01*
X161000072Y-59602000D01*
X160987812Y-59477518D01*
X160951502Y-59357820D01*
X160892537Y-59247506D01*
X160813185Y-59150815D01*
X160716494Y-59071463D01*
X160606180Y-59012498D01*
X160537313Y-58991607D01*
X160567134Y-58967134D01*
X160752706Y-58741014D01*
X160890599Y-58483034D01*
X160975513Y-58203111D01*
X161004185Y-57912000D01*
X160975513Y-57620889D01*
X160890599Y-57340966D01*
X160752706Y-57082986D01*
X160567134Y-56856866D01*
X160341014Y-56671294D01*
X160083034Y-56533401D01*
X159803111Y-56448487D01*
X159584950Y-56427000D01*
X159439050Y-56427000D01*
X159220889Y-56448487D01*
X158940966Y-56533401D01*
X158682986Y-56671294D01*
X158456866Y-56856866D01*
X158271294Y-57082986D01*
X158133401Y-57340966D01*
X158048487Y-57620889D01*
X158019815Y-57912000D01*
X132151250Y-57912000D01*
X132304706Y-57725014D01*
X132442599Y-57467034D01*
X132527513Y-57187111D01*
X132556185Y-56896000D01*
X132527513Y-56604889D01*
X132442599Y-56324966D01*
X132304706Y-56066986D01*
X132119134Y-55840866D01*
X131893014Y-55655294D01*
X131838209Y-55626000D01*
X131893014Y-55596706D01*
X132119134Y-55411134D01*
X132304706Y-55185014D01*
X132442599Y-54927034D01*
X132527513Y-54647111D01*
X132556185Y-54356000D01*
X132527513Y-54064889D01*
X132442599Y-53784966D01*
X132304706Y-53526986D01*
X132119134Y-53300866D01*
X131893014Y-53115294D01*
X131838209Y-53086000D01*
X131893014Y-53056706D01*
X132119134Y-52871134D01*
X132304706Y-52645014D01*
X132442599Y-52387034D01*
X132527513Y-52107111D01*
X132556185Y-51816000D01*
X132527513Y-51524889D01*
X132442599Y-51244966D01*
X132304706Y-50986986D01*
X132119134Y-50760866D01*
X131893014Y-50575294D01*
X131838209Y-50546000D01*
X131893014Y-50516706D01*
X132021817Y-50411000D01*
X165552249Y-50411000D01*
X165608000Y-50416491D01*
X165663751Y-50411000D01*
X165663752Y-50411000D01*
X165830499Y-50394577D01*
X166044447Y-50329676D01*
X166241623Y-50224284D01*
X166414449Y-50082449D01*
X166449996Y-50039135D01*
X167895140Y-48593991D01*
X167938449Y-48558449D01*
X168080284Y-48385623D01*
X168185676Y-48188447D01*
X168250577Y-47974499D01*
X168267000Y-47807752D01*
X168267000Y-47807743D01*
X168272490Y-47752001D01*
X168267000Y-47696259D01*
X168267000Y-39679751D01*
X168272491Y-39624000D01*
X168250577Y-39401501D01*
X168185676Y-39187553D01*
X168116691Y-39058491D01*
X168080284Y-38990377D01*
X167938449Y-38817551D01*
X167895140Y-38782009D01*
X166267997Y-37154866D01*
X166232450Y-37111552D01*
X166059624Y-36969717D01*
X165862448Y-36864325D01*
X165851890Y-36861122D01*
X165970599Y-36639034D01*
X166055513Y-36359111D01*
X166084185Y-36068000D01*
X166055513Y-35776889D01*
X165970599Y-35496966D01*
X165832706Y-35238986D01*
X165647134Y-35012866D01*
X165421014Y-34827294D01*
X165163034Y-34689401D01*
X164883111Y-34604487D01*
X164664950Y-34583000D01*
X164519050Y-34583000D01*
X164300889Y-34604487D01*
X164020966Y-34689401D01*
X163762986Y-34827294D01*
X163536866Y-35012866D01*
X163512393Y-35042687D01*
X163491502Y-34973820D01*
X163432537Y-34863506D01*
X163353185Y-34766815D01*
X163256494Y-34687463D01*
X163146180Y-34628498D01*
X163026482Y-34592188D01*
X162902000Y-34579928D01*
X161202000Y-34579928D01*
X161077518Y-34592188D01*
X160957820Y-34628498D01*
X160847506Y-34687463D01*
X160750815Y-34766815D01*
X160671463Y-34863506D01*
X160612498Y-34973820D01*
X160576188Y-35093518D01*
X160563928Y-35218000D01*
X160563928Y-36783001D01*
X133374270Y-36783001D01*
X133424157Y-36699252D01*
X133521481Y-36424891D01*
X133400814Y-36195000D01*
X132207000Y-36195000D01*
X132207000Y-36215000D01*
X131953000Y-36215000D01*
X131953000Y-36195000D01*
X129667000Y-36195000D01*
X129667000Y-36215000D01*
X129413000Y-36215000D01*
X129413000Y-36195000D01*
X129393000Y-36195000D01*
X129393000Y-35941000D01*
X129413000Y-35941000D01*
X129413000Y-34747845D01*
X129667000Y-34747845D01*
X129667000Y-35941000D01*
X131953000Y-35941000D01*
X131953000Y-34747845D01*
X132207000Y-34747845D01*
X132207000Y-35941000D01*
X133400814Y-35941000D01*
X133521481Y-35711109D01*
X133424157Y-35436748D01*
X133275178Y-35186645D01*
X133080269Y-34970412D01*
X132846920Y-34796359D01*
X132584099Y-34671175D01*
X132436890Y-34626524D01*
X132207000Y-34747845D01*
X131953000Y-34747845D01*
X131723110Y-34626524D01*
X131575901Y-34671175D01*
X131313080Y-34796359D01*
X131079731Y-34970412D01*
X130884822Y-35186645D01*
X130810000Y-35312255D01*
X130735178Y-35186645D01*
X130540269Y-34970412D01*
X130306920Y-34796359D01*
X130044099Y-34671175D01*
X129896890Y-34626524D01*
X129667000Y-34747845D01*
X129413000Y-34747845D01*
X129183110Y-34626524D01*
X129035901Y-34671175D01*
X128773080Y-34796359D01*
X128539731Y-34970412D01*
X128344822Y-35186645D01*
X128275201Y-35303523D01*
X128240706Y-35238986D01*
X128135000Y-35110183D01*
X128135000Y-34921660D01*
X128140490Y-34865918D01*
X128135000Y-34810176D01*
X128135000Y-34810167D01*
X128118577Y-34643420D01*
X128053676Y-34429472D01*
X127948284Y-34232296D01*
X127806449Y-34059470D01*
X127763135Y-34023923D01*
X127215212Y-33476000D01*
X169978001Y-33476000D01*
X169978000Y-34255122D01*
X169978000Y-34509124D01*
X169978001Y-73523513D01*
X169978000Y-73523523D01*
X169978000Y-73712000D01*
X106374000Y-73712000D01*
X106374000Y-33476000D01*
X119858868Y-33476000D01*
X117311763Y-36023105D01*
G36*
X122971928Y-36918000D02*
G01*
X122984188Y-37042482D01*
X123020498Y-37162180D01*
X123079463Y-37272494D01*
X123158815Y-37369185D01*
X123255506Y-37448537D01*
X123365820Y-37507502D01*
X123485518Y-37543812D01*
X123610000Y-37556072D01*
X124183781Y-37556072D01*
X124201715Y-37589624D01*
X124343551Y-37762450D01*
X124386859Y-37797992D01*
X125270007Y-38681141D01*
X125305550Y-38724450D01*
X125478376Y-38866285D01*
X125675552Y-38971677D01*
X125889500Y-39036578D01*
X126056247Y-39053001D01*
X126056256Y-39053001D01*
X126111998Y-39058491D01*
X126167740Y-39053001D01*
X164955870Y-39053001D01*
X165997000Y-40094132D01*
X165997001Y-47281867D01*
X165137869Y-48141000D01*
X132021817Y-48141000D01*
X131893014Y-48035294D01*
X131635034Y-47897401D01*
X131355111Y-47812487D01*
X131249494Y-47802085D01*
X133386578Y-45665001D01*
X140596530Y-45665001D01*
X140639999Y-45669282D01*
X140683468Y-45665001D01*
X140683476Y-45665001D01*
X140813489Y-45652196D01*
X140980312Y-45601590D01*
X141134058Y-45519412D01*
X141268816Y-45408818D01*
X141296533Y-45375045D01*
X142020966Y-44650612D01*
X142167050Y-44665000D01*
X142312950Y-44665000D01*
X142531111Y-44643513D01*
X142811034Y-44558599D01*
X143069014Y-44420706D01*
X143295134Y-44235134D01*
X143480706Y-44009014D01*
X143515201Y-43944477D01*
X143584822Y-44061355D01*
X143779731Y-44277588D01*
X144013080Y-44451641D01*
X144275901Y-44576825D01*
X144423110Y-44621476D01*
X144653000Y-44500155D01*
X144653000Y-43307000D01*
X144633000Y-43307000D01*
X144633000Y-43053000D01*
X144653000Y-43053000D01*
X144653000Y-43033000D01*
X144907000Y-43033000D01*
X144907000Y-43053000D01*
X144927000Y-43053000D01*
X144927000Y-43307000D01*
X144907000Y-43307000D01*
X144907000Y-44500155D01*
X145136890Y-44621476D01*
X145284099Y-44576825D01*
X145546920Y-44451641D01*
X145780269Y-44277588D01*
X145975178Y-44061355D01*
X146044799Y-43944477D01*
X146079294Y-44009014D01*
X146264866Y-44235134D01*
X146490986Y-44420706D01*
X146748966Y-44558599D01*
X147028889Y-44643513D01*
X147247050Y-44665000D01*
X147392950Y-44665000D01*
X147611111Y-44643513D01*
X147891034Y-44558599D01*
X148149014Y-44420706D01*
X148375134Y-44235134D01*
X148560706Y-44009014D01*
X148590000Y-43954209D01*
X148619294Y-44009014D01*
X148804866Y-44235134D01*
X149030986Y-44420706D01*
X149288966Y-44558599D01*
X149568889Y-44643513D01*
X149787050Y-44665000D01*
X149932950Y-44665000D01*
X150151111Y-44643513D01*
X150431034Y-44558599D01*
X150689014Y-44420706D01*
X150915134Y-44235134D01*
X151100706Y-44009014D01*
X151130000Y-43954209D01*
X151159294Y-44009014D01*
X151344866Y-44235134D01*
X151570986Y-44420706D01*
X151828966Y-44558599D01*
X152108889Y-44643513D01*
X152327050Y-44665000D01*
X152472950Y-44665000D01*
X152691111Y-44643513D01*
X152971034Y-44558599D01*
X153229014Y-44420706D01*
X153455134Y-44235134D01*
X153640706Y-44009014D01*
X153670000Y-43954209D01*
X153699294Y-44009014D01*
X153884866Y-44235134D01*
X154110986Y-44420706D01*
X154368966Y-44558599D01*
X154648889Y-44643513D01*
X154867050Y-44665000D01*
X155012950Y-44665000D01*
X155231111Y-44643513D01*
X155511034Y-44558599D01*
X155769014Y-44420706D01*
X155995134Y-44235134D01*
X156180706Y-44009014D01*
X156210000Y-43954209D01*
X156239294Y-44009014D01*
X156424866Y-44235134D01*
X156650986Y-44420706D01*
X156908966Y-44558599D01*
X157188889Y-44643513D01*
X157407050Y-44665000D01*
X157552950Y-44665000D01*
X157771111Y-44643513D01*
X158051034Y-44558599D01*
X158309014Y-44420706D01*
X158535134Y-44235134D01*
X158720706Y-44009014D01*
X158750000Y-43954209D01*
X158779294Y-44009014D01*
X158964866Y-44235134D01*
X159190986Y-44420706D01*
X159448966Y-44558599D01*
X159728889Y-44643513D01*
X159947050Y-44665000D01*
X160092950Y-44665000D01*
X160311111Y-44643513D01*
X160591034Y-44558599D01*
X160849014Y-44420706D01*
X161075134Y-44235134D01*
X161260706Y-44009014D01*
X161295201Y-43944477D01*
X161364822Y-44061355D01*
X161559731Y-44277588D01*
X161793080Y-44451641D01*
X162055901Y-44576825D01*
X162203110Y-44621476D01*
X162433000Y-44500155D01*
X162433000Y-43307000D01*
X162687000Y-43307000D01*
X162687000Y-44500155D01*
X162916890Y-44621476D01*
X163064099Y-44576825D01*
X163326920Y-44451641D01*
X163560269Y-44277588D01*
X163755178Y-44061355D01*
X163904157Y-43811252D01*
X164001481Y-43536891D01*
X163880814Y-43307000D01*
X162687000Y-43307000D01*
X162433000Y-43307000D01*
X162413000Y-43307000D01*
X162413000Y-43053000D01*
X162433000Y-43053000D01*
X162433000Y-43033000D01*
X162687000Y-43033000D01*
X162687000Y-43053000D01*
X163880814Y-43053000D01*
X164001481Y-42823109D01*
X163904157Y-42548748D01*
X163755178Y-42298645D01*
X163560269Y-42082412D01*
X163331244Y-41911584D01*
X163389014Y-41880706D01*
X163615134Y-41695134D01*
X163800706Y-41469014D01*
X163938599Y-41211034D01*
X164023513Y-40931111D01*
X164052185Y-40640000D01*
X164023513Y-40348889D01*
X163938599Y-40068966D01*
X163800706Y-39810986D01*
X163615134Y-39584866D01*
X163389014Y-39399294D01*
X163131034Y-39261401D01*
X162851111Y-39176487D01*
X162632950Y-39155000D01*
X162487050Y-39155000D01*
X162268889Y-39176487D01*
X161988966Y-39261401D01*
X161730986Y-39399294D01*
X161504866Y-39584866D01*
X161319294Y-39810986D01*
X161290000Y-39865791D01*
X161260706Y-39810986D01*
X161075134Y-39584866D01*
X160849014Y-39399294D01*
X160591034Y-39261401D01*
X160311111Y-39176487D01*
X160092950Y-39155000D01*
X159947050Y-39155000D01*
X159728889Y-39176487D01*
X159448966Y-39261401D01*
X159190986Y-39399294D01*
X158964866Y-39584866D01*
X158779294Y-39810986D01*
X158750000Y-39865791D01*
X158720706Y-39810986D01*
X158535134Y-39584866D01*
X158309014Y-39399294D01*
X158051034Y-39261401D01*
X157771111Y-39176487D01*
X157552950Y-39155000D01*
X157407050Y-39155000D01*
X157188889Y-39176487D01*
X156908966Y-39261401D01*
X156650986Y-39399294D01*
X156424866Y-39584866D01*
X156239294Y-39810986D01*
X156204799Y-39875523D01*
X156135178Y-39758645D01*
X155940269Y-39542412D01*
X155706920Y-39368359D01*
X155444099Y-39243175D01*
X155296890Y-39198524D01*
X155067000Y-39319845D01*
X155067000Y-40513000D01*
X155087000Y-40513000D01*
X155087000Y-40767000D01*
X155067000Y-40767000D01*
X155067000Y-40787000D01*
X154813000Y-40787000D01*
X154813000Y-40767000D01*
X154793000Y-40767000D01*
X154793000Y-40513000D01*
X154813000Y-40513000D01*
X154813000Y-39319845D01*
X154583110Y-39198524D01*
X154435901Y-39243175D01*
X154173080Y-39368359D01*
X153939731Y-39542412D01*
X153744822Y-39758645D01*
X153675201Y-39875523D01*
X153640706Y-39810986D01*
X153455134Y-39584866D01*
X153229014Y-39399294D01*
X152971034Y-39261401D01*
X152691111Y-39176487D01*
X152472950Y-39155000D01*
X152327050Y-39155000D01*
X152108889Y-39176487D01*
X151828966Y-39261401D01*
X151570986Y-39399294D01*
X151344866Y-39584866D01*
X151159294Y-39810986D01*
X151124799Y-39875523D01*
X151055178Y-39758645D01*
X150860269Y-39542412D01*
X150626920Y-39368359D01*
X150364099Y-39243175D01*
X150216890Y-39198524D01*
X149987000Y-39319845D01*
X149987000Y-40513000D01*
X150007000Y-40513000D01*
X150007000Y-40767000D01*
X149987000Y-40767000D01*
X149987000Y-40787000D01*
X149733000Y-40787000D01*
X149733000Y-40767000D01*
X149713000Y-40767000D01*
X149713000Y-40513000D01*
X149733000Y-40513000D01*
X149733000Y-39319845D01*
X149503110Y-39198524D01*
X149355901Y-39243175D01*
X149093080Y-39368359D01*
X148859731Y-39542412D01*
X148664822Y-39758645D01*
X148595201Y-39875523D01*
X148560706Y-39810986D01*
X148375134Y-39584866D01*
X148149014Y-39399294D01*
X147891034Y-39261401D01*
X147611111Y-39176487D01*
X147392950Y-39155000D01*
X147247050Y-39155000D01*
X147028889Y-39176487D01*
X146748966Y-39261401D01*
X146490986Y-39399294D01*
X146264866Y-39584866D01*
X146079294Y-39810986D01*
X146050000Y-39865791D01*
X146020706Y-39810986D01*
X145835134Y-39584866D01*
X145609014Y-39399294D01*
X145351034Y-39261401D01*
X145071111Y-39176487D01*
X144852950Y-39155000D01*
X144707050Y-39155000D01*
X144488889Y-39176487D01*
X144208966Y-39261401D01*
X143950986Y-39399294D01*
X143724866Y-39584866D01*
X143539294Y-39810986D01*
X143510000Y-39865791D01*
X143480706Y-39810986D01*
X143295134Y-39584866D01*
X143069014Y-39399294D01*
X142811034Y-39261401D01*
X142531111Y-39176487D01*
X142312950Y-39155000D01*
X142167050Y-39155000D01*
X141948889Y-39176487D01*
X141668966Y-39261401D01*
X141410986Y-39399294D01*
X141184866Y-39584866D01*
X140999294Y-39810986D01*
X140970000Y-39865791D01*
X140940706Y-39810986D01*
X140755134Y-39584866D01*
X140529014Y-39399294D01*
X140271034Y-39261401D01*
X139991111Y-39176487D01*
X139772950Y-39155000D01*
X139627050Y-39155000D01*
X139408889Y-39176487D01*
X139128966Y-39261401D01*
X138870986Y-39399294D01*
X138644866Y-39584866D01*
X138459294Y-39810986D01*
X138424799Y-39875523D01*
X138355178Y-39758645D01*
X138160269Y-39542412D01*
X137926920Y-39368359D01*
X137664099Y-39243175D01*
X137516890Y-39198524D01*
X137287000Y-39319845D01*
X137287000Y-40513000D01*
X137307000Y-40513000D01*
X137307000Y-40767000D01*
X137287000Y-40767000D01*
X137287000Y-40787000D01*
X137033000Y-40787000D01*
X137033000Y-40767000D01*
X137013000Y-40767000D01*
X137013000Y-40513000D01*
X137033000Y-40513000D01*
X137033000Y-39319845D01*
X136803110Y-39198524D01*
X136655901Y-39243175D01*
X136393080Y-39368359D01*
X136159731Y-39542412D01*
X135964822Y-39758645D01*
X135895201Y-39875523D01*
X135860706Y-39810986D01*
X135675134Y-39584866D01*
X135449014Y-39399294D01*
X135191034Y-39261401D01*
X134911111Y-39176487D01*
X134692950Y-39155000D01*
X134547050Y-39155000D01*
X134328889Y-39176487D01*
X134048966Y-39261401D01*
X133790986Y-39399294D01*
X133564866Y-39584866D01*
X133379294Y-39810986D01*
X133350000Y-39865791D01*
X133320706Y-39810986D01*
X133135134Y-39584866D01*
X132909014Y-39399294D01*
X132651034Y-39261401D01*
X132371111Y-39176487D01*
X132152950Y-39155000D01*
X132007050Y-39155000D01*
X131788889Y-39176487D01*
X131508966Y-39261401D01*
X131250986Y-39399294D01*
X131024866Y-39584866D01*
X130839294Y-39810986D01*
X130804799Y-39875523D01*
X130735178Y-39758645D01*
X130540269Y-39542412D01*
X130306920Y-39368359D01*
X130044099Y-39243175D01*
X129896890Y-39198524D01*
X129667000Y-39319845D01*
X129667000Y-40513000D01*
X129687000Y-40513000D01*
X129687000Y-40767000D01*
X129667000Y-40767000D01*
X129667000Y-40787000D01*
X129413000Y-40787000D01*
X129413000Y-40767000D01*
X129393000Y-40767000D01*
X129393000Y-40513000D01*
X129413000Y-40513000D01*
X129413000Y-39319845D01*
X129183110Y-39198524D01*
X129035901Y-39243175D01*
X128773080Y-39368359D01*
X128539731Y-39542412D01*
X128344822Y-39758645D01*
X128275201Y-39875523D01*
X128240706Y-39810986D01*
X128055134Y-39584866D01*
X127829014Y-39399294D01*
X127571034Y-39261401D01*
X127291111Y-39176487D01*
X127072950Y-39155000D01*
X126927050Y-39155000D01*
X126708889Y-39176487D01*
X126428966Y-39261401D01*
X126170986Y-39399294D01*
X125944866Y-39584866D01*
X125759294Y-39810986D01*
X125730000Y-39865791D01*
X125700706Y-39810986D01*
X125515134Y-39584866D01*
X125289014Y-39399294D01*
X125031034Y-39261401D01*
X124751111Y-39176487D01*
X124532950Y-39155000D01*
X124387050Y-39155000D01*
X124168889Y-39176487D01*
X123888966Y-39261401D01*
X123630986Y-39399294D01*
X123404866Y-39584866D01*
X123219294Y-39810986D01*
X123190000Y-39865791D01*
X123160706Y-39810986D01*
X122975134Y-39584866D01*
X122749014Y-39399294D01*
X122491034Y-39261401D01*
X122211111Y-39176487D01*
X121992950Y-39155000D01*
X121847050Y-39155000D01*
X121628889Y-39176487D01*
X121348966Y-39261401D01*
X121090986Y-39399294D01*
X120864866Y-39584866D01*
X120679294Y-39810986D01*
X120644799Y-39875523D01*
X120575178Y-39758645D01*
X120380269Y-39542412D01*
X120146920Y-39368359D01*
X119884099Y-39243175D01*
X119736890Y-39198524D01*
X119507000Y-39319845D01*
X119507000Y-40513000D01*
X119527000Y-40513000D01*
X119527000Y-40767000D01*
X119507000Y-40767000D01*
X119507000Y-40787000D01*
X119253000Y-40787000D01*
X119253000Y-40767000D01*
X119233000Y-40767000D01*
X119233000Y-40513000D01*
X119253000Y-40513000D01*
X119253000Y-39319845D01*
X119023110Y-39198524D01*
X118875901Y-39243175D01*
X118613080Y-39368359D01*
X118379731Y-39542412D01*
X118184822Y-39758645D01*
X118115201Y-39875523D01*
X118080706Y-39810986D01*
X117895134Y-39584866D01*
X117669014Y-39399294D01*
X117411034Y-39261401D01*
X117313359Y-39231772D01*
X121192133Y-35352999D01*
X122971928Y-35352999D01*
X122971928Y-36918000D01*
X122971928Y-36918000D01*
G37*
X122971928Y-36918000D02*
X122984188Y-37042482D01*
X123020498Y-37162180D01*
X123079463Y-37272494D01*
X123158815Y-37369185D01*
X123255506Y-37448537D01*
X123365820Y-37507502D01*
X123485518Y-37543812D01*
X123610000Y-37556072D01*
X124183781Y-37556072D01*
X124201715Y-37589624D01*
X124343551Y-37762450D01*
X124386859Y-37797992D01*
X125270007Y-38681141D01*
X125305550Y-38724450D01*
X125478376Y-38866285D01*
X125675552Y-38971677D01*
X125889500Y-39036578D01*
X126056247Y-39053001D01*
X126056256Y-39053001D01*
X126111998Y-39058491D01*
X126167740Y-39053001D01*
X164955870Y-39053001D01*
X165997000Y-40094132D01*
X165997001Y-47281867D01*
X165137869Y-48141000D01*
X132021817Y-48141000D01*
X131893014Y-48035294D01*
X131635034Y-47897401D01*
X131355111Y-47812487D01*
X131249494Y-47802085D01*
X133386578Y-45665001D01*
X140596530Y-45665001D01*
X140639999Y-45669282D01*
X140683468Y-45665001D01*
X140683476Y-45665001D01*
X140813489Y-45652196D01*
X140980312Y-45601590D01*
X141134058Y-45519412D01*
X141268816Y-45408818D01*
X141296533Y-45375045D01*
X142020966Y-44650612D01*
X142167050Y-44665000D01*
X142312950Y-44665000D01*
X142531111Y-44643513D01*
X142811034Y-44558599D01*
X143069014Y-44420706D01*
X143295134Y-44235134D01*
X143480706Y-44009014D01*
X143515201Y-43944477D01*
X143584822Y-44061355D01*
X143779731Y-44277588D01*
X144013080Y-44451641D01*
X144275901Y-44576825D01*
X144423110Y-44621476D01*
X144653000Y-44500155D01*
X144653000Y-43307000D01*
X144633000Y-43307000D01*
X144633000Y-43053000D01*
X144653000Y-43053000D01*
X144653000Y-43033000D01*
X144907000Y-43033000D01*
X144907000Y-43053000D01*
X144927000Y-43053000D01*
X144927000Y-43307000D01*
X144907000Y-43307000D01*
X144907000Y-44500155D01*
X145136890Y-44621476D01*
X145284099Y-44576825D01*
X145546920Y-44451641D01*
X145780269Y-44277588D01*
X145975178Y-44061355D01*
X146044799Y-43944477D01*
X146079294Y-44009014D01*
X146264866Y-44235134D01*
X146490986Y-44420706D01*
X146748966Y-44558599D01*
X147028889Y-44643513D01*
X147247050Y-44665000D01*
X147392950Y-44665000D01*
X147611111Y-44643513D01*
X147891034Y-44558599D01*
X148149014Y-44420706D01*
X148375134Y-44235134D01*
X148560706Y-44009014D01*
X148590000Y-43954209D01*
X148619294Y-44009014D01*
X148804866Y-44235134D01*
X149030986Y-44420706D01*
X149288966Y-44558599D01*
X149568889Y-44643513D01*
X149787050Y-44665000D01*
X149932950Y-44665000D01*
X150151111Y-44643513D01*
X150431034Y-44558599D01*
X150689014Y-44420706D01*
X150915134Y-44235134D01*
X151100706Y-44009014D01*
X151130000Y-43954209D01*
X151159294Y-44009014D01*
X151344866Y-44235134D01*
X151570986Y-44420706D01*
X151828966Y-44558599D01*
X152108889Y-44643513D01*
X152327050Y-44665000D01*
X152472950Y-44665000D01*
X152691111Y-44643513D01*
X152971034Y-44558599D01*
X153229014Y-44420706D01*
X153455134Y-44235134D01*
X153640706Y-44009014D01*
X153670000Y-43954209D01*
X153699294Y-44009014D01*
X153884866Y-44235134D01*
X154110986Y-44420706D01*
X154368966Y-44558599D01*
X154648889Y-44643513D01*
X154867050Y-44665000D01*
X155012950Y-44665000D01*
X155231111Y-44643513D01*
X155511034Y-44558599D01*
X155769014Y-44420706D01*
X155995134Y-44235134D01*
X156180706Y-44009014D01*
X156210000Y-43954209D01*
X156239294Y-44009014D01*
X156424866Y-44235134D01*
X156650986Y-44420706D01*
X156908966Y-44558599D01*
X157188889Y-44643513D01*
X157407050Y-44665000D01*
X157552950Y-44665000D01*
X157771111Y-44643513D01*
X158051034Y-44558599D01*
X158309014Y-44420706D01*
X158535134Y-44235134D01*
X158720706Y-44009014D01*
X158750000Y-43954209D01*
X158779294Y-44009014D01*
X158964866Y-44235134D01*
X159190986Y-44420706D01*
X159448966Y-44558599D01*
X159728889Y-44643513D01*
X159947050Y-44665000D01*
X160092950Y-44665000D01*
X160311111Y-44643513D01*
X160591034Y-44558599D01*
X160849014Y-44420706D01*
X161075134Y-44235134D01*
X161260706Y-44009014D01*
X161295201Y-43944477D01*
X161364822Y-44061355D01*
X161559731Y-44277588D01*
X161793080Y-44451641D01*
X162055901Y-44576825D01*
X162203110Y-44621476D01*
X162433000Y-44500155D01*
X162433000Y-43307000D01*
X162687000Y-43307000D01*
X162687000Y-44500155D01*
X162916890Y-44621476D01*
X163064099Y-44576825D01*
X163326920Y-44451641D01*
X163560269Y-44277588D01*
X163755178Y-44061355D01*
X163904157Y-43811252D01*
X164001481Y-43536891D01*
X163880814Y-43307000D01*
X162687000Y-43307000D01*
X162433000Y-43307000D01*
X162413000Y-43307000D01*
X162413000Y-43053000D01*
X162433000Y-43053000D01*
X162433000Y-43033000D01*
X162687000Y-43033000D01*
X162687000Y-43053000D01*
X163880814Y-43053000D01*
X164001481Y-42823109D01*
X163904157Y-42548748D01*
X163755178Y-42298645D01*
X163560269Y-42082412D01*
X163331244Y-41911584D01*
X163389014Y-41880706D01*
X163615134Y-41695134D01*
X163800706Y-41469014D01*
X163938599Y-41211034D01*
X164023513Y-40931111D01*
X164052185Y-40640000D01*
X164023513Y-40348889D01*
X163938599Y-40068966D01*
X163800706Y-39810986D01*
X163615134Y-39584866D01*
X163389014Y-39399294D01*
X163131034Y-39261401D01*
X162851111Y-39176487D01*
X162632950Y-39155000D01*
X162487050Y-39155000D01*
X162268889Y-39176487D01*
X161988966Y-39261401D01*
X161730986Y-39399294D01*
X161504866Y-39584866D01*
X161319294Y-39810986D01*
X161290000Y-39865791D01*
X161260706Y-39810986D01*
X161075134Y-39584866D01*
X160849014Y-39399294D01*
X160591034Y-39261401D01*
X160311111Y-39176487D01*
X160092950Y-39155000D01*
X159947050Y-39155000D01*
X159728889Y-39176487D01*
X159448966Y-39261401D01*
X159190986Y-39399294D01*
X158964866Y-39584866D01*
X158779294Y-39810986D01*
X158750000Y-39865791D01*
X158720706Y-39810986D01*
X158535134Y-39584866D01*
X158309014Y-39399294D01*
X158051034Y-39261401D01*
X157771111Y-39176487D01*
X157552950Y-39155000D01*
X157407050Y-39155000D01*
X157188889Y-39176487D01*
X156908966Y-39261401D01*
X156650986Y-39399294D01*
X156424866Y-39584866D01*
X156239294Y-39810986D01*
X156204799Y-39875523D01*
X156135178Y-39758645D01*
X155940269Y-39542412D01*
X155706920Y-39368359D01*
X155444099Y-39243175D01*
X155296890Y-39198524D01*
X155067000Y-39319845D01*
X155067000Y-40513000D01*
X155087000Y-40513000D01*
X155087000Y-40767000D01*
X155067000Y-40767000D01*
X155067000Y-40787000D01*
X154813000Y-40787000D01*
X154813000Y-40767000D01*
X154793000Y-40767000D01*
X154793000Y-40513000D01*
X154813000Y-40513000D01*
X154813000Y-39319845D01*
X154583110Y-39198524D01*
X154435901Y-39243175D01*
X154173080Y-39368359D01*
X153939731Y-39542412D01*
X153744822Y-39758645D01*
X153675201Y-39875523D01*
X153640706Y-39810986D01*
X153455134Y-39584866D01*
X153229014Y-39399294D01*
X152971034Y-39261401D01*
X152691111Y-39176487D01*
X152472950Y-39155000D01*
X152327050Y-39155000D01*
X152108889Y-39176487D01*
X151828966Y-39261401D01*
X151570986Y-39399294D01*
X151344866Y-39584866D01*
X151159294Y-39810986D01*
X151124799Y-39875523D01*
X151055178Y-39758645D01*
X150860269Y-39542412D01*
X150626920Y-39368359D01*
X150364099Y-39243175D01*
X150216890Y-39198524D01*
X149987000Y-39319845D01*
X149987000Y-40513000D01*
X150007000Y-40513000D01*
X150007000Y-40767000D01*
X149987000Y-40767000D01*
X149987000Y-40787000D01*
X149733000Y-40787000D01*
X149733000Y-40767000D01*
X149713000Y-40767000D01*
X149713000Y-40513000D01*
X149733000Y-40513000D01*
X149733000Y-39319845D01*
X149503110Y-39198524D01*
X149355901Y-39243175D01*
X149093080Y-39368359D01*
X148859731Y-39542412D01*
X148664822Y-39758645D01*
X148595201Y-39875523D01*
X148560706Y-39810986D01*
X148375134Y-39584866D01*
X148149014Y-39399294D01*
X147891034Y-39261401D01*
X147611111Y-39176487D01*
X147392950Y-39155000D01*
X147247050Y-39155000D01*
X147028889Y-39176487D01*
X146748966Y-39261401D01*
X146490986Y-39399294D01*
X146264866Y-39584866D01*
X146079294Y-39810986D01*
X146050000Y-39865791D01*
X146020706Y-39810986D01*
X145835134Y-39584866D01*
X145609014Y-39399294D01*
X145351034Y-39261401D01*
X145071111Y-39176487D01*
X144852950Y-39155000D01*
X144707050Y-39155000D01*
X144488889Y-39176487D01*
X144208966Y-39261401D01*
X143950986Y-39399294D01*
X143724866Y-39584866D01*
X143539294Y-39810986D01*
X143510000Y-39865791D01*
X143480706Y-39810986D01*
X143295134Y-39584866D01*
X143069014Y-39399294D01*
X142811034Y-39261401D01*
X142531111Y-39176487D01*
X142312950Y-39155000D01*
X142167050Y-39155000D01*
X141948889Y-39176487D01*
X141668966Y-39261401D01*
X141410986Y-39399294D01*
X141184866Y-39584866D01*
X140999294Y-39810986D01*
X140970000Y-39865791D01*
X140940706Y-39810986D01*
X140755134Y-39584866D01*
X140529014Y-39399294D01*
X140271034Y-39261401D01*
X139991111Y-39176487D01*
X139772950Y-39155000D01*
X139627050Y-39155000D01*
X139408889Y-39176487D01*
X139128966Y-39261401D01*
X138870986Y-39399294D01*
X138644866Y-39584866D01*
X138459294Y-39810986D01*
X138424799Y-39875523D01*
X138355178Y-39758645D01*
X138160269Y-39542412D01*
X137926920Y-39368359D01*
X137664099Y-39243175D01*
X137516890Y-39198524D01*
X137287000Y-39319845D01*
X137287000Y-40513000D01*
X137307000Y-40513000D01*
X137307000Y-40767000D01*
X137287000Y-40767000D01*
X137287000Y-40787000D01*
X137033000Y-40787000D01*
X137033000Y-40767000D01*
X137013000Y-40767000D01*
X137013000Y-40513000D01*
X137033000Y-40513000D01*
X137033000Y-39319845D01*
X136803110Y-39198524D01*
X136655901Y-39243175D01*
X136393080Y-39368359D01*
X136159731Y-39542412D01*
X135964822Y-39758645D01*
X135895201Y-39875523D01*
X135860706Y-39810986D01*
X135675134Y-39584866D01*
X135449014Y-39399294D01*
X135191034Y-39261401D01*
X134911111Y-39176487D01*
X134692950Y-39155000D01*
X134547050Y-39155000D01*
X134328889Y-39176487D01*
X134048966Y-39261401D01*
X133790986Y-39399294D01*
X133564866Y-39584866D01*
X133379294Y-39810986D01*
X133350000Y-39865791D01*
X133320706Y-39810986D01*
X133135134Y-39584866D01*
X132909014Y-39399294D01*
X132651034Y-39261401D01*
X132371111Y-39176487D01*
X132152950Y-39155000D01*
X132007050Y-39155000D01*
X131788889Y-39176487D01*
X131508966Y-39261401D01*
X131250986Y-39399294D01*
X131024866Y-39584866D01*
X130839294Y-39810986D01*
X130804799Y-39875523D01*
X130735178Y-39758645D01*
X130540269Y-39542412D01*
X130306920Y-39368359D01*
X130044099Y-39243175D01*
X129896890Y-39198524D01*
X129667000Y-39319845D01*
X129667000Y-40513000D01*
X129687000Y-40513000D01*
X129687000Y-40767000D01*
X129667000Y-40767000D01*
X129667000Y-40787000D01*
X129413000Y-40787000D01*
X129413000Y-40767000D01*
X129393000Y-40767000D01*
X129393000Y-40513000D01*
X129413000Y-40513000D01*
X129413000Y-39319845D01*
X129183110Y-39198524D01*
X129035901Y-39243175D01*
X128773080Y-39368359D01*
X128539731Y-39542412D01*
X128344822Y-39758645D01*
X128275201Y-39875523D01*
X128240706Y-39810986D01*
X128055134Y-39584866D01*
X127829014Y-39399294D01*
X127571034Y-39261401D01*
X127291111Y-39176487D01*
X127072950Y-39155000D01*
X126927050Y-39155000D01*
X126708889Y-39176487D01*
X126428966Y-39261401D01*
X126170986Y-39399294D01*
X125944866Y-39584866D01*
X125759294Y-39810986D01*
X125730000Y-39865791D01*
X125700706Y-39810986D01*
X125515134Y-39584866D01*
X125289014Y-39399294D01*
X125031034Y-39261401D01*
X124751111Y-39176487D01*
X124532950Y-39155000D01*
X124387050Y-39155000D01*
X124168889Y-39176487D01*
X123888966Y-39261401D01*
X123630986Y-39399294D01*
X123404866Y-39584866D01*
X123219294Y-39810986D01*
X123190000Y-39865791D01*
X123160706Y-39810986D01*
X122975134Y-39584866D01*
X122749014Y-39399294D01*
X122491034Y-39261401D01*
X122211111Y-39176487D01*
X121992950Y-39155000D01*
X121847050Y-39155000D01*
X121628889Y-39176487D01*
X121348966Y-39261401D01*
X121090986Y-39399294D01*
X120864866Y-39584866D01*
X120679294Y-39810986D01*
X120644799Y-39875523D01*
X120575178Y-39758645D01*
X120380269Y-39542412D01*
X120146920Y-39368359D01*
X119884099Y-39243175D01*
X119736890Y-39198524D01*
X119507000Y-39319845D01*
X119507000Y-40513000D01*
X119527000Y-40513000D01*
X119527000Y-40767000D01*
X119507000Y-40767000D01*
X119507000Y-40787000D01*
X119253000Y-40787000D01*
X119253000Y-40767000D01*
X119233000Y-40767000D01*
X119233000Y-40513000D01*
X119253000Y-40513000D01*
X119253000Y-39319845D01*
X119023110Y-39198524D01*
X118875901Y-39243175D01*
X118613080Y-39368359D01*
X118379731Y-39542412D01*
X118184822Y-39758645D01*
X118115201Y-39875523D01*
X118080706Y-39810986D01*
X117895134Y-39584866D01*
X117669014Y-39399294D01*
X117411034Y-39261401D01*
X117313359Y-39231772D01*
X121192133Y-35352999D01*
X122971928Y-35352999D01*
X122971928Y-36918000D01*
M02*
