G04 #@! TF.GenerationSoftware,KiCad,Pcbnew,(5.1.0-0)*
G04 #@! TF.CreationDate,2019-04-08T09:35:23+05:30*
G04 #@! TF.ProjectId,CAN_board,43414e5f-626f-4617-9264-2e6b69636164,rev?*
G04 #@! TF.SameCoordinates,Original*
G04 #@! TF.FileFunction,Soldermask,Bot*
G04 #@! TF.FilePolarity,Negative*
%FSLAX46Y46*%
G04 Gerber Fmt 4.6, Leading zero omitted, Abs format (unit mm)*
G04 Created by KiCad (PCBNEW (5.1.0-0)) date 2019-04-08 09:35:23*
%MOMM*%
%LPD*%
G04 APERTURE LIST*
%ADD10R,2.100000X2.100000*%
%ADD11O,2.100000X2.100000*%
G04 APERTURE END LIST*
D10*
X114300000Y-43180000D03*
D11*
X114300000Y-40640000D03*
X116840000Y-43180000D03*
X116840000Y-40640000D03*
X119380000Y-43180000D03*
X119380000Y-40640000D03*
X121920000Y-43180000D03*
X121920000Y-40640000D03*
X124460000Y-43180000D03*
X124460000Y-40640000D03*
X127000000Y-43180000D03*
X127000000Y-40640000D03*
X129540000Y-43180000D03*
X129540000Y-40640000D03*
X132080000Y-43180000D03*
X132080000Y-40640000D03*
X134620000Y-43180000D03*
X134620000Y-40640000D03*
X137160000Y-43180000D03*
X137160000Y-40640000D03*
X139700000Y-43180000D03*
X139700000Y-40640000D03*
X142240000Y-43180000D03*
X142240000Y-40640000D03*
X144780000Y-43180000D03*
X144780000Y-40640000D03*
X147320000Y-43180000D03*
X147320000Y-40640000D03*
X149860000Y-43180000D03*
X149860000Y-40640000D03*
X152400000Y-43180000D03*
X152400000Y-40640000D03*
X154940000Y-43180000D03*
X154940000Y-40640000D03*
X157480000Y-43180000D03*
X157480000Y-40640000D03*
X160020000Y-43180000D03*
X160020000Y-40640000D03*
X162560000Y-43180000D03*
X162560000Y-40640000D03*
X131064000Y-49276000D03*
X131064000Y-51816000D03*
X131064000Y-54356000D03*
X131064000Y-56896000D03*
X131064000Y-59436000D03*
X131064000Y-61976000D03*
X131064000Y-64516000D03*
D10*
X131064000Y-67056000D03*
X159512000Y-60452000D03*
D11*
X159512000Y-57912000D03*
X115824000Y-36068000D03*
X113284000Y-36068000D03*
X110744000Y-36068000D03*
D10*
X108204000Y-36068000D03*
X123444000Y-70612000D03*
D11*
X123444000Y-68072000D03*
X123444000Y-65532000D03*
X123444000Y-62992000D03*
X123444000Y-60452000D03*
X123444000Y-57912000D03*
X123444000Y-55372000D03*
X123444000Y-52832000D03*
X123444000Y-50292000D03*
X123444000Y-47752000D03*
D10*
X124460000Y-36068000D03*
D11*
X127000000Y-36068000D03*
X129540000Y-36068000D03*
X132080000Y-36068000D03*
X164592000Y-36068000D03*
D10*
X162052000Y-36068000D03*
M02*
